<?xml version="1.0" encoding="UTF-8"?>
<svg version="1.1" xmlns="http://www.w3.org/2000/svg" width="733" height="300">
<path d="M0 0 C241.89 0 483.78 0 733 0 C733 99 733 198 733 300 C491.11 300 249.22 300 0 300 C0 201 0 102 0 0 Z " fill="#FEFEFE" transform="translate(0,0)"/>
<path d="M0 0 C132.99 0 265.98 0 403 0 C403 82.5 403 165 403 250 C270.01 250 137.02 250 0 250 C0 167.5 0 85 0 0 Z " fill="#FDFDFD" transform="translate(165,25)"/>
<path d="M0 0 C5.28 0 10.56 0 16 0 C18.75390625 7.34375 18.75390625 7.34375 19.71026611 9.89408875 C21.34156735 14.24429283 22.97296176 18.59446195 24.60449219 22.94458008 C28.0544475 32.143402 31.50332124 41.34262593 34.94921875 50.54296875 C41.49666203 68.02160749 48.06800316 85.49045601 54.69921875 102.9375 C57.06003714 109.15108953 59.39521613 115.37395138 61.71875 121.6015625 C62.62232821 123.99824861 63.53663156 126.38795018 64.46875 128.7734375 C64.9328125 129.96195313 65.396875 131.15046875 65.875 132.375 C66.28492188 133.41398438 66.69484375 134.45296875 67.1171875 135.5234375 C68 138 68 138 68 140 C63.38 140 58.76 140 54 140 C54.763125 141.753125 55.52625 143.50625 56.3125 145.3125 C59.57781408 152.90486198 62.73125991 160.54418399 65.875 168.1875 C66.37555908 169.3938208 66.87611816 170.6001416 67.3918457 171.84301758 C67.8580835 172.98150146 68.32432129 174.11998535 68.8046875 175.29296875 C69.43866455 176.83247192 69.43866455 176.83247192 70.08544922 178.40307617 C71 181 71 181 71 184 C65.39 184 59.78 184 54 184 C52.28618415 179.78431905 50.5756044 175.56761211 48.87304688 171.34741211 C48.29288127 169.91208628 47.71086106 168.47750865 47.12695312 167.04370117 C46.28807948 164.98289679 45.45590761 162.91949566 44.625 160.85546875 C44.36251465 160.21473923 44.1000293 159.5740097 43.82958984 158.91386414 C42.70398703 156.10091871 42 154.06281705 42 151 C19.23 151 -3.54 151 -27 151 C-27.33 152.65 -27.66 154.3 -28 156 C-28.79442194 158.21923609 -29.63366226 160.42266708 -30.50390625 162.61328125 C-30.86801857 163.53490303 -30.86801857 163.53490303 -31.23948669 164.47514343 C-32.0098905 166.42251559 -32.78609451 168.36751397 -33.5625 170.3125 C-34.08827647 171.63851895 -34.61367113 172.96468936 -35.13867188 174.29101562 C-36.42066632 177.52941865 -37.71049047 180.76454199 -39 184 C-44.61 184 -50.22 184 -56 184 C-53.42533037 174.44787995 -49.61955989 165.48424222 -45.8125 156.375 C-45.15124584 154.78273759 -44.4904349 153.19029104 -43.83007812 151.59765625 C-42.22515434 147.72962881 -40.61425258 143.86414299 -39 140 C-42.96 140.33 -46.92 140.66 -51 141 C-48.84630248 133.57687993 -46.3913929 126.31969071 -43.74609375 119.05859375 C-43.33289383 117.91780869 -42.91969391 116.77702362 -42.49397278 115.60166931 C-41.37649274 112.51875277 -40.25648988 109.43676901 -39.13508606 106.35527802 C-38.1965116 103.77498353 -37.25990571 101.19397618 -36.32322121 98.61299515 C-29.99878669 81.18817113 -23.63903203 63.77624225 -17.25 46.375 C-16.89485321 45.40738739 -16.53970642 44.43977478 -16.17379761 43.44284058 C-10.84698307 28.93759127 -5.4397403 14.46325366 0 0 Z " fill="#070707" transform="translate(359,58)"/>
<path d="M0 0 C5.61 0 11.22 0 17 0 C17.00142502 1.29324188 17.00285004 2.58648376 17.00431824 3.91891479 C17.0210167 16.13037194 17.06387779 28.34149707 17.13209057 40.55277824 C17.16632258 46.83015559 17.19146475 53.10729053 17.19555664 59.38476562 C17.19984757 65.44745511 17.22837735 71.50959809 17.27343178 77.57211685 C17.2863812 79.88042132 17.29072358 82.18879127 17.28615379 84.49712753 C17.28122989 87.74070367 17.30742179 90.98269355 17.34057617 94.22607422 C17.32763771 95.6448864 17.32763771 95.6448864 17.31443787 97.09236145 C17.44336851 104.65939257 19.5953006 111.21089696 24.72593975 116.92080498 C28.93292303 120.94253097 32.06647456 121.77492796 38 124 C38 102.88 38 81.76 38 60 C33.38 60 28.76 60 24 60 C24 57.36 24 54.72 24 52 C37.86 52 51.72 52 66 52 C66 54.31 66 56.62 66 59 C61.38 59 56.76 59 52 59 C52 80.12 52 101.24 52 123 C63.50274386 118.01084095 63.50274386 118.01084095 70 108 C71.81747703 101.85054903 72.30361069 96.30481379 72.31884766 89.91210938 C72.32889328 88.93558411 72.3389389 87.95905884 72.34928894 86.95294189 C72.37999014 83.7498835 72.3971197 80.54690818 72.4140625 77.34375 C72.43278465 75.11315197 72.45235884 72.88256095 72.4727478 70.65197754 C72.52396427 64.79952127 72.5636461 58.94704206 72.60089111 53.09448242 C72.64099656 47.11501439 72.69205903 41.13564091 72.7421875 35.15625 C72.83882263 23.43756652 72.92326707 11.71882952 73 0 C78.28 0 83.56 0 89 0 C89.06973665 13.07459454 89.12293107 26.14914428 89.15543652 39.22388744 C89.17104327 45.296054 89.19218993 51.36809261 89.22631836 57.44018555 C89.2590903 63.30814674 89.27689048 69.17598544 89.28463173 75.04403114 C89.29014335 77.27454873 89.30090559 79.50506018 89.31719017 81.73552513 C89.54123437 113.71559883 89.54123437 113.71559883 76.89453125 127.25390625 C69.31469917 134.53859442 62.35347106 136.70581612 52 138 C52 150.21 52 162.42 52 175 C56.95 175 61.9 175 67 175 C67 177.64 67 180.28 67 183 C52.81 183 38.62 183 24 183 C24 180.36 24 177.72 24 175 C28.62 175 33.24 175 38 175 C38 162.79 38 150.58 38 138 C35.36 138 32.72 138 30 138 C19.62622245 135.43671194 11.53450301 129.01003913 6 120 C1.24758297 111.07358512 -0.30408419 102.64669212 -0.22705078 92.63671875 C-0.22734283 91.63093277 -0.22763489 90.62514679 -0.22793579 89.58888245 C-0.22655049 86.28833166 -0.21102699 82.98801101 -0.1953125 79.6875 C-0.19157953 77.38964969 -0.1887339 75.09179779 -0.18673706 72.79394531 C-0.17912301 66.76385049 -0.15949366 60.73385294 -0.1373291 54.70379639 C-0.11682263 48.54342972 -0.10772509 42.38304725 -0.09765625 36.22265625 C-0.07624566 24.14839491 -0.04213665 12.07420556 0 0 Z " fill="#0B0B0B" transform="translate(206,59)"/>
<path d="M0 0 C4.62 0 9.24 0 14 0 C14.00586624 1.2306015 14.01173248 2.461203 14.01777649 3.72909546 C14.07510122 15.35186216 14.14791383 26.97444352 14.23571491 38.5970211 C14.28035647 44.57166559 14.31962641 50.54624286 14.34643555 56.52099609 C14.37253032 62.29181327 14.41297666 68.06237092 14.46318626 73.83302689 C14.47981321 76.02968736 14.49135337 78.22639267 14.49761391 80.42310715 C14.50730033 83.51069812 14.5354142 86.59763135 14.56762695 89.68505859 C14.56619186 90.58417969 14.56475677 91.48330078 14.5632782 92.40966797 C14.6960991 101.46869349 16.50372475 109.62048288 22.93359375 116.23828125 C29.67611476 121.98663092 36.01170982 123.73890204 44.8203125 123.35546875 C52.1523627 122.53579238 59.90679731 120.68948008 65 115 C68.87057392 108.60742317 72.09105471 102.32127023 72.15821838 94.76055908 C72.1680072 93.92205917 72.17779602 93.08355927 72.18788147 92.21965027 C72.19363693 91.30830826 72.1993924 90.39696625 72.20532227 89.45800781 C72.21522186 88.49182022 72.22512146 87.52563263 72.23532104 86.53016663 C72.26689842 83.33784431 72.29167869 80.14550712 72.31640625 76.953125 C72.33697902 74.73923354 72.35797558 72.52534598 72.37937927 70.3114624 C72.43456656 64.48524128 72.48399063 58.6589849 72.53222656 52.83270264 C72.58246595 46.88713443 72.6381393 40.94161741 72.69335938 34.99609375 C72.80090008 23.33077289 72.90235418 11.66540759 73 0 C77.29 0 81.58 0 86 0 C86.11621397 13.33530252 86.20487766 26.67048315 86.25906086 40.0061903 C86.28507546 46.19954088 86.32032485 52.39254317 86.37719727 58.58569336 C86.43180702 64.57038577 86.46148163 70.55474465 86.47438622 76.53966713 C86.48357422 78.81487586 86.50151548 81.09006781 86.52865028 83.36513329 C86.70010526 98.34589003 86.6610242 110.39639168 76.75 122.5 C67.97252461 131.45157407 56.97044546 135.29923545 44.55126953 135.51953125 C43.10276611 135.50986328 43.10276611 135.50986328 41.625 135.5 C40.61421387 135.49355469 39.60342773 135.48710937 38.56201172 135.48046875 C27.54643468 135.210714 19.10015113 132.20639426 11.0390625 124.51171875 C3.3636999 115.05720122 -0.31967037 103.96303467 -0.22705078 91.95556641 C-0.22734283 90.95982605 -0.22763489 89.96408569 -0.22793579 88.93817139 C-0.22654663 85.65921196 -0.21100473 82.38048205 -0.1953125 79.1015625 C-0.19158091 76.82327397 -0.18873462 74.54498383 -0.18673706 72.26669312 C-0.17911217 66.27931259 -0.15947341 60.29202958 -0.1373291 54.3046875 C-0.11684609 48.19141967 -0.10773009 42.07813603 -0.09765625 35.96484375 C-0.07622652 23.97651973 -0.0421043 11.98826799 0 0 Z " fill="#050505" transform="translate(441,106)"/>
<path d="M0 0 C132.99 0 265.98 0 403 0 C403 82.5 403 165 403 250 C270.01 250 137.02 250 0 250 C0 167.5 0 85 0 0 Z M3 3 C3 83.52 3 164.04 3 247 C134.01 247 265.02 247 400 247 C400 166.48 400 85.96 400 3 C268.99 3 137.98 3 3 3 Z " fill="#303030" transform="translate(165,25)"/>
<path d="M0 0 C3.96 0 7.92 0 12 0 C16.4116951 11.55550594 20.80883019 23.11575893 25.14013672 34.70166016 C26.53092552 38.41911779 27.92518906 42.13527158 29.3190918 45.8515625 C30.4916576 48.9777582 31.66380107 52.10411204 32.8359375 55.23046875 C34.11049272 58.62946723 35.38606303 62.02807634 36.6640625 65.42578125 C40.60049709 75.8962583 40.60049709 75.8962583 42.46484375 81.00390625 C42.99732576 82.46096311 43.52988064 83.91799334 44.0625 85.375 C44.33473389 86.12120605 44.60696777 86.86741211 44.88745117 87.63623047 C46.97748989 93.32398815 49.14520164 98.97940414 51.3359375 104.62890625 C51.93358224 106.17461491 52.53115657 107.7203508 53.12866211 109.26611328 C54.02962651 111.59650084 54.93293359 113.92583617 55.84378052 116.25238037 C56.70252743 118.44596322 57.55309968 120.64256779 58.40234375 122.83984375 C58.79557327 123.83402061 58.79557327 123.83402061 59.19674683 124.84828186 C60.47338669 128.17373281 61 130.3710723 61 134 C57.37 134 53.74 134 50 134 C38 104 26 74 14 44 C8.39 43.67 2.78 43.34 -3 43 C-3.33 44.65 -3.66 46.3 -4 48 C-4.67872682 49.90843433 -5.40345705 51.80080539 -6.16015625 53.6796875 C-6.84428589 55.38560059 -6.84428589 55.38560059 -7.54223633 57.12597656 C-8.04885111 58.37570771 -8.55561018 59.62538038 -9.0625 60.875 C-9.59098707 62.18707456 -10.11921959 63.49925167 -10.6472168 64.81152344 C-13.77125924 72.56109679 -16.93576963 80.29405153 -20.109375 88.0234375 C-20.4579808 88.8724765 -20.80658661 89.7215155 -21.16575623 90.59628296 C-22.87444497 94.75567386 -24.58613882 98.91379097 -26.30297852 103.06982422 C-30.67187025 113.66188519 -34.88666594 124.30612784 -39 135 C-42.3 135 -45.6 135 -49 135 C-47.21212706 128.54379217 -45.0106351 122.42355717 -42.47192383 116.2253418 C-39.99223976 110.10858696 -37.82363076 103.89881201 -35.66796875 97.66186523 C-33.75843762 92.14549961 -31.78757077 86.65778389 -29.75 81.1875 C-27.54108385 75.25613918 -25.39192425 69.30572338 -23.2890625 63.3359375 C-23.04978027 62.65745255 -22.81049805 61.97896759 -22.56396484 61.27992249 C-21.36978886 57.89221096 -20.17956329 54.50318583 -18.99511719 51.11206055 C-16.58334742 44.241025 -14.00066992 37.48698111 -11.15185547 30.78491211 C-9.37990682 26.50076241 -7.86964864 22.13707054 -6.375 17.75 C-4.3302085 11.79984094 -2.23599777 5.88135171 0 0 Z " fill="#F7F7F7" transform="translate(361,61)"/>
<path d="M0 0 C15.18 0 30.36 0 46 0 C46 3.63 46 7.26 46 11 C41.05 11 36.1 11 31 11 C31 49.61 31 88.22 31 128 C35.95 128 40.9 128 46 128 C46 131.63 46 135.26 46 139 C30.82 139 15.64 139 0 139 C0 135.37 0 131.74 0 128 C4.95 128 9.9 128 15 128 C15 89.39 15 50.78 15 11 C10.05 11 5.1 11 0 11 C0 7.37 0 3.74 0 0 Z " fill="#FCFCFC" transform="translate(462,59)"/>
<path d="M0 0 C0.66 0 1.32 0 2 0 C6.67621525 11.80888678 11.34127256 23.62213658 15.99273682 35.4407959 C16.64839386 37.10665664 17.30426643 38.77243258 17.96038818 40.43811035 C19.69664374 44.84676715 21.42768019 49.25739374 23.14978027 53.67160034 C23.67364012 55.01224073 24.19926707 56.35219199 24.72668457 57.69143677 C25.45671684 59.54631053 26.17971712 61.40394735 26.90234375 63.26171875 C27.30960693 64.30287842 27.71687012 65.34403809 28.13647461 66.41674805 C29 69 29 69 29 72 C10.19 72 -8.62 72 -28 72 C-27.31637834 68.58189168 -26.72828437 66.00440692 -25.48461914 62.8659668 C-25.17630157 62.08216644 -24.86798401 61.29836609 -24.55032349 60.49081421 C-24.2153183 59.65208771 -23.88031311 58.81336121 -23.53515625 57.94921875 C-23.18581024 57.06553619 -22.83646423 56.18185364 -22.47653198 55.27139282 C-21.34297521 52.40830555 -20.20300493 49.54782581 -19.0625 46.6875 C-18.28641338 44.73271617 -17.51045327 42.7778821 -16.73461914 40.82299805 C-11.30047209 27.15451691 -5.76763173 13.5316678 0 0 Z " fill="#FAFAFA" transform="translate(366,124)"/>
<path d="M0 0 C3.63 0 7.26 0 11 0 C11.00586624 1.2306015 11.01173248 2.461203 11.01777649 3.72909546 C11.07510122 15.35186216 11.14791383 26.97444352 11.23571491 38.5970211 C11.28035647 44.57166559 11.31962641 50.54624286 11.34643555 56.52099609 C11.37253032 62.29181327 11.41297666 68.06237092 11.46318626 73.83302689 C11.47981321 76.02968736 11.49135337 78.22639267 11.49761391 80.42310715 C11.50730033 83.51069812 11.5354142 86.59763135 11.56762695 89.68505859 C11.56619186 90.58417969 11.56475677 91.48330078 11.5632782 92.40966797 C11.70400106 102.00764508 13.8451284 109.97119611 20.52734375 117.015625 C24.8453559 120.48094913 29.78686278 122.27097616 35 124 C35 126.64 35 129.28 35 132 C25.55817517 132.59011405 18.58071886 129.00812901 11.5 122.8125 C2.64554342 112.85123635 -0.5001027 102.8167038 -0.34057617 89.5715332 C-0.34101425 88.59456985 -0.34145233 87.61760651 -0.34190369 86.61103821 C-0.33983561 83.42407311 -0.31659903 80.23765293 -0.29296875 77.05078125 C-0.28736574 74.82448107 -0.28309898 72.59817717 -0.28010559 70.37187195 C-0.26871238 64.54397163 -0.23929314 58.71629959 -0.20599365 52.88848877 C-0.17517317 46.92894579 -0.16157475 40.96936552 -0.14648438 35.00976562 C-0.11441782 23.33974407 -0.06328891 11.6698911 0 0 Z " fill="#F7F7F7" transform="translate(209,62)"/>
<path d="M0 0 C130.68 0 261.36 0 396 0 C396 0.33 396 0.66 396 1 C266.31 1 136.62 1 3 1 C3 82.18 3 163.36 3 247 C134.01 247 265.02 247 400 247 C400 247.33 400 247.66 400 248 C268 248 136 248 0 248 C0 166.16 0 84.32 0 0 Z " fill="#0F0F0F" transform="translate(165,26)"/>
<path d="M0 0 C3.3 0 6.6 0 10 0 C10.09294462 12.96145404 10.163889 25.92282794 10.20724869 38.88454819 C10.22806595 44.90410946 10.25627636 50.92344164 10.30175781 56.94287109 C10.34542469 62.7589669 10.36918113 68.57484322 10.37950897 74.39109039 C10.38686302 76.60291241 10.4012232 78.81472329 10.42292023 81.02645111 C10.69158394 109.56487665 10.69158394 109.56487665 0 121 C-7.07577366 128.15901806 -13.97797381 131.37362336 -24 132 C-24 129.03 -24 126.06 -24 123 C-23.02160156 122.65388672 -23.02160156 122.65388672 -22.0234375 122.30078125 C-13.1205148 118.97859918 -8.24198991 115.32839242 -4.078125 106.6953125 C-1.41829504 100.0457376 -0.69857168 94.41213317 -0.68115234 87.30102539 C-0.67110672 86.35390686 -0.6610611 85.40678833 -0.65071106 84.43096924 C-0.61997424 81.31987073 -0.60287032 78.20885791 -0.5859375 75.09765625 C-0.56721822 72.93288948 -0.54764424 70.76812995 -0.5272522 68.6033783 C-0.4760054 62.92024001 -0.43633974 57.23707809 -0.39910889 51.55383301 C-0.35902253 45.74872018 -0.30795132 39.94370504 -0.2578125 34.13867188 C-0.16114143 22.75918329 -0.07670841 11.37963944 0 0 Z " fill="#FBFBFB" transform="translate(282,62)"/>
<path d="M0 0 C15.18 0 30.36 0 46 0 C46 3.63 46 7.26 46 11 C41.05 11 36.1 11 31 11 C31 49.61 31 88.22 31 128 C35.95 128 40.9 128 46 128 C46 131.63 46 135.26 46 139 C30.82 139 15.64 139 0 139 C0 135.37 0 131.74 0 128 C4.95 128 9.9 128 15 128 C15 89.39 15 50.78 15 11 C10.05 11 5.1 11 0 11 C0 7.37 0 3.74 0 0 Z M3 3 C3 4.65 3 6.3 3 8 C7.95 8 12.9 8 18 8 C18 48.59 18 89.18 18 131 C13.05 131 8.1 131 3 131 C3 132.65 3 134.3 3 136 C16.2 136 29.4 136 43 136 C43 134.35 43 132.7 43 131 C38.05 131 33.1 131 28 131 C28 90.41 28 49.82 28 8 C32.95 8 37.9 8 43 8 C43 6.35 43 4.7 43 3 C29.8 3 16.6 3 3 3 Z " fill="#000000" transform="translate(462,59)"/>
<path d="M0 0 C5.28 0 10.56 0 16 0 C18.75390625 7.34375 18.75390625 7.34375 19.71026611 9.89408875 C21.34156735 14.24429283 22.97296176 18.59446195 24.60449219 22.94458008 C28.0544475 32.143402 31.50332124 41.34262593 34.94921875 50.54296875 C40.62879059 65.70479302 46.31475264 80.86386698 52.0625 96 C52.50819336 97.17433594 52.95388672 98.34867187 53.41308594 99.55859375 C55.23872826 104.36746674 57.06671086 109.17540065 58.90234375 113.98046875 C61.54153269 120.91520254 64.03765522 127.8391629 66 135 C65.34 135 64.68 135 64 135 C64 135.99 64 136.98 64 138 C60.37 138 56.74 138 53 138 C53 137.67 53 137.34 53 137 C56.3 137 59.6 137 63 137 C59.56259972 126.90263669 56.0296472 116.87808908 52 107 C48.93691555 99.48689959 46.13362098 91.91794467 43.52148438 84.23632812 C41.61752947 78.6574079 39.53794789 73.16148881 37.4074707 67.6652832 C35.84489547 63.59608251 34.32162656 59.51359928 32.80859375 55.42578125 C32.53364578 54.68330643 32.25869781 53.9408316 31.97541809 53.17585754 C30.84289718 50.11562746 29.71165877 47.0549254 28.58129883 43.99389648 C25.74819377 36.32512801 22.91147053 28.66717456 19.83813477 21.09057617 C18.56658576 17.91892626 17.40291554 14.71677668 16.25 11.5 C15.82203125 10.3140625 15.3940625 9.128125 14.953125 7.90625 C14 5 14 5 14 3 C10.04 3 6.08 3 2 3 C1.57332031 4.45148437 1.14664063 5.90296875 0.70703125 7.3984375 C-0.8319414 12.52474006 -2.52973381 17.57902718 -4.3125 22.625 C-4.61736328 23.49181396 -4.92222656 24.35862793 -5.23632812 25.25170898 C-7.80137623 32.5102352 -10.48961679 39.71826837 -13.21435547 46.91796875 C-16.84412792 56.53720414 -20.44537114 66.15890466 -23.625 75.9375 C-25.04690779 80.2770887 -26.5706718 84.49302276 -28.375 88.6875 C-31.00176609 94.8056417 -33.16336765 101.05449472 -35.33227539 107.34521484 C-37.67354713 114.12167212 -40.16469066 120.82819573 -42.73828125 127.51953125 C-43.99285455 130.98028919 -45.02016407 134.45290837 -46 138 C-46.33 138.99 -46.66 139.98 -47 141 C-48.32 141 -49.64 141 -51 141 C-48.87122569 133.57349002 -46.39004015 126.31597754 -43.74609375 119.05859375 C-43.33289383 117.91780869 -42.91969391 116.77702362 -42.49397278 115.60166931 C-41.37649274 112.51875277 -40.25648988 109.43676901 -39.13508606 106.35527802 C-38.1965116 103.77498353 -37.25990571 101.19397618 -36.32322121 98.61299515 C-29.99878669 81.18817113 -23.63903203 63.77624225 -17.25 46.375 C-16.89485321 45.40738739 -16.53970642 44.43977478 -16.17379761 43.44284058 C-10.84698307 28.93759127 -5.4397403 14.46325366 0 0 Z " fill="#202020" transform="translate(359,58)"/>
<path d="M0 0 C15.18 0 30.36 0 46 0 C46 3.63 46 7.26 46 11 C43.54137599 11.05383848 41.0839245 11.09359038 38.625 11.125 C37.57699219 11.15013672 37.57699219 11.15013672 36.5078125 11.17578125 C34.67102514 11.19344267 32.83398037 11.10303261 31 11 C30.34 10.34 29.68 9.68 29 9 C29 49.26 29 89.52 29 131 C28.67 131 28.34 131 28 131 C28 90.41 28 49.82 28 8 C32.95 8 37.9 8 43 8 C43 6.35 43 4.7 43 3 C29.8 3 16.6 3 3 3 C3 4.65 3 6.3 3 8 C7.95 8 12.9 8 18 8 C18 48.59 18 89.18 18 131 C17.67 131 17.34 131 17 131 C17 90.74 17 50.48 17 9 C16.34 9.66 15.68 10.32 15 11 C12.41935871 11.14497985 9.95056116 11.18677545 7.375 11.125 C6.66859375 11.11597656 5.9621875 11.10695313 5.234375 11.09765625 C3.48943902 11.07407603 1.74467705 11.03820461 0 11 C0 7.37 0 3.74 0 0 Z " fill="#505050" transform="translate(462,59)"/>
<path d="M0 0 C5.28 0 10.56 0 16 0 C16 33.66 16 67.32 16 102 C13 99 13 99 12.63085651 97.13158894 C12.63362189 96.4264173 12.63638727 95.72124567 12.63923645 94.9947052 C12.63511246 94.18282242 12.63098846 93.37093964 12.6267395 92.53445435 C12.63752533 91.64756927 12.64831116 90.7606842 12.65942383 89.84692383 C12.65898575 88.91014297 12.65854767 87.97336212 12.65809631 87.00819397 C12.66018861 83.90759538 12.68354069 80.80753554 12.70703125 77.70703125 C12.71262563 75.55897823 12.71689647 73.41092138 12.71989441 71.26286316 C12.73135559 65.60581924 12.76083387 59.94900594 12.79400635 54.29205322 C12.82467971 48.52090576 12.8383939 42.74972108 12.85351562 36.97851562 C12.88570223 25.65224236 12.93691408 14.32614035 13 3 C9.7 3 6.4 3 3 3 C3 35.01 3 67.02 3 100 C2.01 99.34 1.02 98.68 0 98 C-0.28599346 94.85996287 -0.37784161 91.91811307 -0.34057617 88.77685547 C-0.34101425 87.8207135 -0.34145233 86.86457153 -0.34190369 85.87945557 C-0.33980806 82.70849421 -0.31644045 79.53805687 -0.29296875 76.3671875 C-0.28737555 74.17286467 -0.28310415 71.97853811 -0.28010559 69.78421021 C-0.26863511 64.00056671 -0.23914893 58.21714818 -0.20599365 52.43359375 C-0.17534023 46.53518721 -0.16161037 40.63674443 -0.14648438 34.73828125 C-0.11428139 23.15875516 -0.06305843 11.57939627 0 0 Z " fill="#2D2D2D" transform="translate(279,59)"/>
<path d="M0 0 C5.28 0 10.56 0 16 0 C16 33.66 16 67.32 16 102 C15.34 102 14.68 102 14 102 C14 69 14 36 14 2 C10.04 2 6.08 2 2 2 C2 34.34 2 66.68 2 100 C1.67 100 1.34 100 1 100 C-0.05016589 94.84803303 -0.1354559 89.91990599 -0.11352539 84.68994141 C-0.11367142 83.77222961 -0.11381744 82.85451782 -0.1139679 81.90899658 C-0.11327384 78.88982745 -0.10550523 75.87072079 -0.09765625 72.8515625 C-0.09579027 70.75263503 -0.09436722 68.65370712 -0.09336853 66.55477905 C-0.08955754 61.04090158 -0.07973938 55.52705062 -0.06866455 50.01318359 C-0.05841992 44.38249063 -0.05386437 38.75179336 -0.04882812 33.12109375 C-0.03811582 22.08071755 -0.02105645 11.04036098 0 0 Z " fill="#030303" transform="translate(206,60)"/>
<path d="M0 0 C0.33 0 0.66 0 1 0 C1.00586624 1.22838089 1.01173248 2.45676178 1.01777649 3.72236633 C1.07512733 15.33010522 1.14795334 26.93765899 1.23571491 38.54520893 C1.28033653 44.51197761 1.31961076 50.4786793 1.34643555 56.44555664 C1.37255035 62.20989429 1.41301056 67.973973 1.46318626 73.73814964 C1.47979976 75.93119256 1.49134823 78.1242802 1.49761391 80.31737709 C1.50731513 83.40236833 1.53544613 86.4867053 1.56762695 89.5715332 C1.56619186 90.46705902 1.56475677 91.36258484 1.5632782 92.2852478 C1.74078049 104.41122069 5.38779152 115.5294817 14.1875 124.140625 C20.78170344 129.30319217 27.83822793 130.76514976 36 132 C36 129.36 36 126.72 36 124 C35.01 123.67 34.02 123.34 33 123 C34.32 123 35.64 123 37 123 C37 126.3 37 129.6 37 133 C35.88625 133.2165625 35.88625 133.2165625 34.75 133.4375 C32.12013122 133.91649443 32.12013122 133.91649443 30.125 134.6328125 C24.52196431 135.60098411 18.18893836 131.36579327 13.75 128.25 C5.09730788 121.28946743 -0.32952952 110.94372328 -2 100 C-2.13858908 97.30675213 -2.09642243 94.69982795 -2 92 C-1.67 92 -1.34 92 -1 92 C-0.67 61.64 -0.34 31.28 0 0 Z " fill="#3E3E3E" transform="translate(208,62)"/>
<path d="M0 0 C4.95 0 9.9 0 15 0 C14.67 0.66 14.34 1.32 14 2 C10.37 2 6.74 2 3 2 C3 3.98 3 5.96 3 8 C16.2 8 29.4 8 43 8 C43 6.35 43 4.7 43 3 C38.38 3 33.76 3 29 3 C29.66 2.01 30.32 1.02 31 0 C33.62697064 -0.22137393 36.00893964 -0.28162025 38.625 -0.1875 C39.33140625 -0.17396484 40.0378125 -0.16042969 40.765625 -0.14648438 C42.51074128 -0.1111104 44.25546608 -0.05730221 46 0 C46 3.63 46 7.26 46 11 C30.82 11 15.64 11 0 11 C0 7.37 0 3.74 0 0 Z " fill="#0D0D0D" transform="translate(462,187)"/>
<path d="M0 0 C5.28 0 10.56 0 16 0 C17.50396773 3.95686747 19.00334047 7.91536923 20.5 11.875 C20.92925781 13.00292969 21.35851562 14.13085938 21.80078125 15.29296875 C22.40986328 16.90751953 22.40986328 16.90751953 23.03125 18.5546875 C23.40830078 19.54968262 23.78535156 20.54467773 24.17382812 21.56982422 C25 24 25 24 25 26 C24.34 26 23.68 26 23 26 C22.67 26.66 22.34 27.32 22 28 C20.84860965 24.77278785 19.70488074 21.54291128 18.5625 18.3125 C18.23701172 17.40048828 17.91152344 16.48847656 17.57617188 15.54882812 C17.26357422 14.66259766 16.95097656 13.77636719 16.62890625 12.86328125 C16.34088135 12.05157471 16.05285645 11.23986816 15.75610352 10.40356445 C14.98497826 7.95224766 14.45817775 5.52686013 14 3 C12.86111328 3.05220703 12.86111328 3.05220703 11.69921875 3.10546875 C10.70535156 3.13253906 9.71148437 3.15960938 8.6875 3.1875 C7.70136719 3.22230469 6.71523438 3.25710937 5.69921875 3.29296875 C3 3 3 3 0 0 Z " fill="#222222" transform="translate(359,58)"/>
<path d="M0 0 C2.62697064 -0.22137393 5.00893964 -0.28162025 7.625 -0.1875 C8.33140625 -0.17396484 9.0378125 -0.16042969 9.765625 -0.14648438 C11.51074128 -0.1111104 13.25546608 -0.05730221 15 0 C15 3.63 15 7.26 15 11 C12.525 10.505 12.525 10.505 10 10 C8.65033713 9.89552252 7.2974216 9.82636104 5.9440918 9.79467773 C4.80347542 9.7647599 4.80347542 9.7647599 3.63981628 9.73423767 C2.4317205 9.70916893 2.4317205 9.70916893 1.19921875 9.68359375 C0.36284378 9.66281265 -0.47353119 9.64203156 -1.33525085 9.62062073 C-3.99425421 9.55548966 -6.65335228 9.4964105 -9.3125 9.4375 C-11.12045231 9.39428008 -12.92839522 9.3506647 -14.73632812 9.30664062 C-19.15745622 9.19984584 -23.57867912 9.09847675 -28 9 C-28 8.67 -28 8.34 -28 8 C-14.8 8 -1.6 8 12 8 C12 6.35 12 4.7 12 3 C7.38 3 2.76 3 -2 3 C-1.34 2.01 -0.68 1.02 0 0 Z " fill="#393939" transform="translate(493,187)"/>
<path d="M0 0 C0.33 0.66 0.66 1.32 1 2 C1.66 2 2.32 2 3 2 C0.99599 10.57856913 -2.01224412 16.77585695 -8.9375 22.375 C-12.31274674 24.16594725 -15.29614968 25.11107592 -19 26 C-19.33 25.01 -19.66 24.02 -20 23 C-19.40832031 22.75765625 -18.81664062 22.5153125 -18.20703125 22.265625 C-10.61209344 19.04428107 -5.41439027 15.85152416 -2 8 C-1.17568939 5.34078328 -0.57473851 2.73000793 0 0 Z " fill="#1C1C1C" transform="translate(278,159)"/>
<path d="M0 0 C1.07070532 2.10265207 2.09138715 4.20741802 3.04296875 6.3671875 C6.35641996 13.62737752 9.90882685 18.36353074 17.4375 21.375 C18.7059375 21.684375 18.7059375 21.684375 20 22 C19.67 22.99 19.34 23.98 19 25 C11.6316899 24.13313999 7.04989713 19.47000984 2.484375 14.015625 C-0.34689873 10.17105331 -1.1494079 7.34467112 -0.625 2.625 C-0.41875 1.75875 -0.2125 0.8925 0 0 Z " fill="#1D1D1D" transform="translate(222,160)"/>
<path d="M0 0 C0.99 0.33 1.98 0.66 3 1 C0.29895639 10.42995928 -2.87152311 19.70569001 -6 29 C-6.99 28.34 -7.98 27.68 -9 27 C-6.43696551 17.84951721 -3.20468777 8.93993804 0 0 Z " fill="#202020" transform="translate(339,112)"/>
<path d="M0 0 C3 1 3 1 3.9831543 2.79418945 C4.26070557 3.55948975 4.53825684 4.32479004 4.82421875 5.11328125 C5.28344727 6.3672168 5.28344727 6.3672168 5.75195312 7.64648438 C6.06068359 8.52626953 6.36941406 9.40605469 6.6875 10.3125 C7.00783203 11.18068359 7.32816406 12.04886719 7.65820312 12.94335938 C9.09162885 16.92577667 10 19.70215743 10 24 C9.34 24 8.68 24 8 24 C6.65853506 20.56561785 5.32824095 17.12701583 4 13.6875 C3.6184375 12.71103516 3.236875 11.73457031 2.84375 10.72851562 C2.4828125 9.79072266 2.121875 8.85292969 1.75 7.88671875 C1.41484375 7.02264404 1.0796875 6.15856934 0.734375 5.26831055 C0 3 0 3 0 0 Z " fill="#171717" transform="translate(399,129)"/>
<path d="M0 0 C4.95 0 9.9 0 15 0 C14.67 0.66 14.34 1.32 14 2 C10.37 2 6.74 2 3 2 C3 4.31 3 6.62 3 9 C4.65 9 6.3 9 8 9 C8 9.33 8 9.66 8 10 C5.36 10.33 2.72 10.66 0 11 C0 7.37 0 3.74 0 0 Z " fill="#222222" transform="translate(462,187)"/>
<path d="M0 0 C2.83556803 2.83556803 3.77445029 6.30375868 5.125 10 C5.54072266 11.10601562 5.54072266 11.10601562 5.96484375 12.234375 C8 17.72829433 8 17.72829433 8 20 C7.01 20.33 6.02 20.66 5 21 C3.96334662 18.44292167 2.9456027 15.88081487 1.9375 13.3125 C1.64294922 12.59126953 1.34839844 11.87003906 1.04492188 11.12695312 C-0.53631551 7.05294152 -1.49159182 4.32135458 0 0 Z " fill="#242424" transform="translate(393,109)"/>
<path d="M0 0 C1.32 0 2.64 0 4 0 C4 3.3 4 6.6 4 10 C3.2575 10.144375 2.515 10.28875 1.75 10.4375 C-0.87882248 10.90849188 -0.87882248 10.90849188 -2.84375 11.65625 C-5.80063609 12.12763764 -7.52674229 11.24496716 -10.25 10.0625 C-11.14203125 9.68222656 -12.0340625 9.30195313 -12.953125 8.91015625 C-13.62859375 8.60980469 -14.3040625 8.30945313 -15 8 C-14.67 7.01 -14.34 6.02 -14 5 C-13.03900391 5.30744141 -13.03900391 5.30744141 -12.05859375 5.62109375 C-7.02712149 7.18827364 -2.24011997 8.43042174 3 9 C3 6.36 3 3.72 3 1 C2.01 0.67 1.02 0.34 0 0 Z " fill="#383838" transform="translate(241,185)"/>
<path d="M0 0 C3.96 0 7.92 0 12 0 C12 0.33 12 0.66 12 1 C7.545 1.495 7.545 1.495 3 2 C2.67386719 2.92683594 2.34773438 3.85367188 2.01171875 4.80859375 C1.57472656 6.00613281 1.13773437 7.20367187 0.6875 8.4375 C0.25824219 9.63246094 -0.17101562 10.82742187 -0.61328125 12.05859375 C-1.07089844 13.02925781 -1.52851563 13.99992187 -2 15 C-2.99 15.33 -3.98 15.66 -5 16 C-3.90301833 10.30860098 -2.45946923 5.25432063 0 0 Z " fill="#191919" transform="translate(359,59)"/>
<path d="M0 0 C2.38125464 2.38125464 3.00186241 4.33857567 4.125 7.5 C4.65480469 8.96953125 4.65480469 8.96953125 5.1953125 10.46875 C6 13 6 13 6 15 C5.34 15 4.68 15 4 15 C4 15.99 4 16.98 4 18 C0.37 18 -3.26 18 -7 18 C-7 17.67 -7 17.34 -7 17 C-3.7 17 -0.4 17 3 17 C2.69964844 16.19175781 2.39929688 15.38351563 2.08984375 14.55078125 C1.51943359 12.94783203 1.51943359 12.94783203 0.9375 11.3125 C0.55464844 10.25675781 0.17179687 9.20101562 -0.22265625 8.11328125 C-1.0233052 4.90666208 -0.9237249 3.1313693 0 0 Z " fill="#242424" transform="translate(419,178)"/>
<path d="M0 0 C5.28 0 10.56 0 16 0 C15.34 1.32 14.68 2.64 14 4 C9.71 3.67 5.42 3.34 1 3 C0.67 2.01 0.34 1.02 0 0 Z " fill="#212121" transform="translate(279,59)"/>
<path d="M0 0 C1.16161779 2.86578759 0.9946154 4.01630163 0.00390625 7.015625 C-0.70958984 8.61664063 -0.70958984 8.61664063 -1.4375 10.25 C-1.91058594 11.32765625 -2.38367188 12.4053125 -2.87109375 13.515625 C-3.24363281 14.33546875 -3.61617188 15.1553125 -4 16 C-4.66 16 -5.32 16 -6 16 C-3.67123288 3.67123288 -3.67123288 3.67123288 0 0 Z " fill="#171717" transform="translate(346,97)"/>
<path d="M0 0 C0.99 0.33 1.98 0.66 3 1 C2.21824485 5.84688192 0.60155722 10.3766367 -1 15 C-1.99 14.67 -2.98 14.34 -4 14 C-3.00956295 9.16371695 -2.04301154 4.52381127 0 0 Z " fill="#202020" transform="translate(319,167)"/>
<path d="M0 0 C0.99 0.33 1.98 0.66 3 1 C2.21824485 5.84688192 0.60155722 10.3766367 -1 15 C-1.99 14.34 -2.98 13.68 -4 13 C-3.52140759 11.39566191 -3.04210442 9.79153584 -2.5625 8.1875 C-2.29566406 7.29417969 -2.02882813 6.40085938 -1.75390625 5.48046875 C-1.19612127 3.64526945 -0.60655425 1.81966274 0 0 Z " fill="#2A2A2A" transform="translate(334,126)"/>
<path d="M0 0 C5.28 0 10.56 0 16 0 C16.33 1.65 16.66 3.3 17 5 C16.01 5 15.02 5 14 5 C14 4.34 14 3.68 14 3 C12.86111328 3.05220703 12.86111328 3.05220703 11.69921875 3.10546875 C10.70535156 3.13253906 9.71148437 3.15960938 8.6875 3.1875 C7.70136719 3.22230469 6.71523438 3.25710937 5.69921875 3.29296875 C3 3 3 3 0 0 Z " fill="#323232" transform="translate(359,58)"/>
<path d="M0 0 C2.73905337 3.15178744 3.55269393 5.64817614 4.1875 9.75 C4.34605469 10.73484375 4.50460938 11.7196875 4.66796875 12.734375 C4.77753906 13.48203125 4.88710937 14.2296875 5 15 C4.01 15.33 3.02 15.66 2 16 C0.40837921 10.42932723 -0.20674944 5.78898419 0 0 Z " fill="#252525" transform="translate(206,154)"/>
<path d="M0 0 C0.99 0.33 1.98 0.66 3 1 C2.34 4.3 1.68 7.6 1 11 C0.01 10.67 -0.98 10.34 -2 10 C-1.34 6.7 -0.68 3.4 0 0 Z " fill="#2B2B2B" transform="translate(291,163)"/>
<path d="M0 0 C0.95465783 2.16967689 1.14401212 3.56328793 0.3984375 5.82421875 C-0.35870385 7.5684743 -1.17609198 9.28627131 -2 11 C-2.66 11 -3.32 11 -4 11 C-3.56179109 6.44262737 -3.14958831 3.42346555 0 0 Z " fill="#181818" transform="translate(331,138)"/>
<path d="M0 0 C0.66 0 1.32 0 2 0 C4.15305957 3.85756507 5.39253254 6.55129785 5 11 C4.34 11 3.68 11 3 11 C2.49384702 9.73160474 1.99530901 8.46016898 1.5 7.1875 C1.2215625 6.47980469 0.943125 5.77210938 0.65625 5.04296875 C0 3 0 3 0 0 Z " fill="#111111" transform="translate(414,169)"/>
<path d="M0 0 C3.96 0 7.92 0 12 0 C12 0.33 12 0.66 12 1 C11.37351562 1.03738281 10.74703125 1.07476562 10.1015625 1.11328125 C9.28429687 1.17902344 8.46703125 1.24476562 7.625 1.3125 C6.40683594 1.39951172 6.40683594 1.39951172 5.1640625 1.48828125 C2.62078662 1.82990528 2.62078662 1.82990528 1 5 C0.34 5 -0.32 5 -1 5 C-0.67 3.35 -0.34 1.7 0 0 Z " fill="#070707" transform="translate(359,59)"/>
<path d="M0 0 C0.66 0.33 1.32 0.66 2 1 C1.67 1.99 1.34 2.98 1 4 C-2.0625 5.1875 -2.0625 5.1875 -5 6 C-5.33 5.01 -5.66 4.02 -6 3 C-4.03533587 1.93224776 -2.03144641 0.93446535 0 0 Z " fill="#222222" transform="translate(275,188)"/>
<path d="M0 0 C0.99 0 1.98 0 3 0 C3.33 2.64 3.66 5.28 4 8 C3.34 8 2.68 8 2 8 C0.74335022 5.09399739 0 3.20395416 0 0 Z " fill="#1A1A1A" transform="translate(374,63)"/>
<path d="M0 0 C0.99 0.33 1.98 0.66 3 1 C3.33 3.31 3.66 5.62 4 8 C3.34 8 2.68 8 2 8 C0.74335022 5.09399739 0 3.20395416 0 0 Z " fill="#141414" transform="translate(382,84)"/>
<path d="M0 0 C-2.17424117 2.50037734 -3.73045798 3.43628586 -7 4 C-7.33 3.01 -7.66 2.02 -8 1 C-2.25 -1.125 -2.25 -1.125 0 0 Z " fill="#191919" transform="translate(266,181)"/>
<path d="M0 0 C0.99 0.33 1.98 0.66 3 1 C2.67 2.65 2.34 4.3 2 6 C0.68 6.33 -0.64 6.66 -2 7 C-1.34 4.69 -0.68 2.38 0 0 Z " fill="#313131" transform="translate(319,167)"/>
<path d="M0 0 C0.33 0.66 0.66 1.32 1 2 C1.66 2 2.32 2 3 2 C2.67 3.65 2.34 5.3 2 7 C1.01 7.33 0.02 7.66 -1 8 C-0.67 5.36 -0.34 2.72 0 0 Z " fill="#232323" transform="translate(278,159)"/>
<path d="M0 0 C1.85776765 3.13498292 2.20140476 5.37471432 2 9 C1.34 9 0.68 9 0 9 C-1.125 2.25 -1.125 2.25 0 0 Z " fill="#0F0F0F" transform="translate(222,160)"/>
<path d="M0 0 C1.0625 1.875 1.0625 1.875 2 4 C1.67 4.66 1.34 5.32 1 6 C-0.32 6 -1.64 6 -3 6 C-2.625 3.5625 -2.625 3.5625 -2 1 C-1.34 0.67 -0.68 0.34 0 0 Z " fill="#272727" transform="translate(311,193)"/>
<path d="M0 0 C0.99 0 1.98 0 3 0 C3.33 1.65 3.66 3.3 4 5 C3.34 5 2.68 5 2 5 C1.67 5.66 1.34 6.32 1 7 C0.67 4.69 0.34 2.38 0 0 Z " fill="#2A2A2A" transform="translate(380,79)"/>
</svg>
