<?xml version="1.0" encoding="UTF-8"?>
<svg version="1.1" xmlns="http://www.w3.org/2000/svg" width="362" height="210">
<path d="M0 0 C119.46 0 238.92 0 362 0 C362 69.3 362 138.6 362 210 C242.54 210 123.08 210 0 210 C0 140.7 0 71.4 0 0 Z " fill="#FDFDFD" transform="translate(0,0)"/>
<path d="M0 0 C5.28 0 10.56 0 16 0 C18.75390625 7.34375 18.75390625 7.34375 19.71026611 9.89408875 C21.34156735 14.24429283 22.97296176 18.59446195 24.60449219 22.94458008 C28.0544475 32.143402 31.50332124 41.34262593 34.94921875 50.54296875 C41.49666203 68.02160749 48.06800316 85.49045601 54.69921875 102.9375 C57.06003714 109.15108953 59.39521613 115.37395138 61.71875 121.6015625 C62.62232821 123.99824861 63.53663156 126.38795018 64.46875 128.7734375 C64.9328125 129.96195313 65.396875 131.15046875 65.875 132.375 C66.28492188 133.41398438 66.69484375 134.45296875 67.1171875 135.5234375 C68 138 68 138 68 140 C63.38 140 58.76 140 54 140 C54.66588135 141.59654419 54.66588135 141.59654419 55.34521484 143.2253418 C56.99678279 147.18547674 58.64787604 151.14580945 60.29882812 155.10620117 C61.01256635 156.81816901 61.72643219 158.53008364 62.44042969 160.24194336 C63.46843728 162.70672758 64.49598129 165.17170464 65.5234375 167.63671875 C65.84122162 168.39836838 66.15900574 169.16001801 66.48641968 169.94474792 C67.07256113 171.35145792 67.65688054 172.75892919 68.23895264 174.16732788 C68.88706462 175.72804121 69.55057117 177.28234717 70.21728516 178.83520508 C71 181 71 181 71 184 C65.39 184 59.78 184 54 184 C52.28618415 179.78431905 50.5756044 175.56761211 48.87304688 171.34741211 C48.29288127 169.91208628 47.71086106 168.47750865 47.12695312 167.04370117 C46.28807948 164.98289679 45.45590761 162.91949566 44.625 160.85546875 C44.36251465 160.21473923 44.1000293 159.5740097 43.82958984 158.91386414 C42.70398703 156.10091871 42 154.06281705 42 151 C19.23 151 -3.54 151 -27 151 C-27.99 154.3 -28.98 157.6 -30 161 C-30.7236861 163.01372206 -31.47292878 165.01868996 -32.26171875 167.0078125 C-32.85629883 168.51601563 -32.85629883 168.51601563 -33.46289062 170.0546875 C-33.86701172 171.06789062 -34.27113281 172.08109375 -34.6875 173.125 C-35.31108398 174.7028125 -35.31108398 174.7028125 -35.94726562 176.3125 C-36.96119041 178.87644774 -37.98007701 181.4384324 -39 184 C-44.61 184 -50.22 184 -56 184 C-53.49080308 174.81470876 -49.93674117 166.16098008 -46.3125 157.375 C-45.69944249 155.8790813 -45.08680895 154.38298876 -44.47460938 152.88671875 C-42.98795073 149.25579103 -41.49558354 145.62726013 -40 142 C-43.63 141.67 -47.26 141.34 -51 141 C-48.84630248 133.57687993 -46.3913929 126.31969071 -43.74609375 119.05859375 C-43.33289383 117.91780869 -42.91969391 116.77702362 -42.49397278 115.60166931 C-41.37649274 112.51875277 -40.25648988 109.43676901 -39.13508606 106.35527802 C-38.1965116 103.77498353 -37.25990571 101.19397618 -36.32322121 98.61299515 C-29.99878669 81.18817113 -23.63903203 63.77624225 -17.25 46.375 C-16.89485321 45.40738739 -16.53970642 44.43977478 -16.17379761 43.44284058 C-10.84698307 28.93759127 -5.4397403 14.46325366 0 0 Z " fill="#080808" transform="translate(172,16)"/>
<path d="M0 0 C5.61 0 11.22 0 17 0 C17.00364563 1.28071381 17.00729126 2.56142761 17.01104736 3.88095093 C17.04805433 15.97465832 17.10588965 28.06811242 17.18390274 40.16162682 C17.22334265 46.37843223 17.25554844 52.59509672 17.27099609 58.81201172 C17.28618532 64.81629421 17.32067194 70.82018922 17.36830902 76.82429886 C17.38309931 79.11027272 17.39103966 81.39630191 17.39188385 83.68232346 C17.39426226 86.89458858 17.42141361 90.10579043 17.45410156 93.31787109 C17.4490712 94.25439514 17.44404083 95.19091919 17.43885803 96.15582275 C17.55533761 103.59710982 19.23738938 110.43066065 23.859375 116.40234375 C24.48328125 116.90894531 25.1071875 117.41554688 25.75 117.9375 C26.36359375 118.46214844 26.9771875 118.98679687 27.609375 119.52734375 C30.77424914 121.58255292 30.77424914 121.58255292 38 124 C38 102.88 38 81.76 38 60 C33.38 60 28.76 60 24 60 C24 57.36 24 54.72 24 52 C37.86 52 51.72 52 66 52 C66 54.31 66 56.62 66 59 C61.38 59 56.76 59 52 59 C52 80.12 52 101.24 52 123 C64.08091407 117.31918921 64.08091407 117.31918921 70.25 107.4375 C72.10368446 101.41302552 72.16558735 95.47309313 72.20532227 89.23095703 C72.21522186 88.26447739 72.22512146 87.29799774 72.23532104 86.30223083 C72.26680459 83.12078263 72.29164136 79.93931951 72.31640625 76.7578125 C72.33698713 74.54677959 72.3579839 72.33575052 72.37937927 70.12472534 C72.43448278 64.31497306 72.48394364 58.50518597 72.53222656 52.69537354 C72.5825273 46.76303013 72.63816857 40.83073707 72.69335938 34.8984375 C72.80079754 23.26566805 72.9022742 11.63285481 73 0 C78.28 0 83.56 0 89 0 C89.06970115 13.22224949 89.12291323 26.44445482 89.15543652 39.66685104 C89.17105093 45.80742664 89.19221185 51.94787596 89.22631836 58.08837891 C89.25906264 64.02117392 89.27688474 69.95384793 89.28463173 75.88672638 C89.29014826 78.14319003 89.3009203 80.39964753 89.31719017 82.65605927 C89.43729627 100.01322205 89.41897174 114.01064659 76.859375 127.2578125 C68.96664714 134.7365861 62.85398756 136.79400138 52 138 C52 150.21 52 162.42 52 175 C56.95 175 61.9 175 67 175 C67 177.64 67 180.28 67 183 C52.81 183 38.62 183 24 183 C24 180.36 24 177.72 24 175 C28.62 175 33.24 175 38 175 C38 162.79 38 150.58 38 138 C35.36 138 32.72 138 30 138 C20.68456234 135.69822035 12.88225972 130.14605271 7.3828125 122.34765625 C1.70577087 112.70951495 -0.15529787 103.958718 -0.11352539 92.97729492 C-0.11367142 91.97194702 -0.11381744 90.96659912 -0.1139679 89.93078613 C-0.11327228 86.61399158 -0.10549625 83.29725347 -0.09765625 79.98046875 C-0.09579083 77.67832978 -0.09436751 75.37619041 -0.09336853 73.0740509 C-0.08955316 67.0192861 -0.0797312 60.96454535 -0.06866455 54.90979004 C-0.05842939 48.72957688 -0.0538664 42.54935982 -0.04882812 36.36914062 C-0.03810808 24.24608319 -0.02104339 12.1230436 0 0 Z " fill="#070707" transform="translate(19,17)"/>
<path d="M0 0 C4.62 0 9.24 0 14 0 C14.00586624 1.2306015 14.01173248 2.461203 14.01777649 3.72909546 C14.07510122 15.35186216 14.14791383 26.97444352 14.23571491 38.5970211 C14.28035647 44.57166559 14.31962641 50.54624286 14.34643555 56.52099609 C14.37253032 62.29181327 14.41297666 68.06237092 14.46318626 73.83302689 C14.47981321 76.02968736 14.49135337 78.22639267 14.49761391 80.42310715 C14.50730033 83.51069812 14.5354142 86.59763135 14.56762695 89.68505859 C14.56619186 90.58417969 14.56475677 91.48330078 14.5632782 92.40966797 C14.6960991 101.46869349 16.50372475 109.62048288 22.93359375 116.23828125 C29.67611476 121.98663092 36.01170982 123.73890204 44.8203125 123.35546875 C52.23823348 122.52619257 59.75774378 120.62583595 65 115 C70.73831463 106.37954545 72.14107627 99.47730723 72.20532227 89.34448242 C72.21522186 88.3781488 72.22512146 87.41181519 72.23532104 86.41619873 C72.26685152 83.22931347 72.29166007 80.04241331 72.31640625 76.85546875 C72.33698307 74.64300657 72.35797974 72.43054825 72.37937927 70.21809387 C72.4345247 64.40010717 72.48396718 58.58208544 72.53222656 52.76403809 C72.58249657 46.82508228 72.63815392 40.88617724 72.69335938 34.94726562 C72.80084886 23.29822047 72.90231427 11.6491312 73 0 C77.29 0 81.58 0 86 0 C86.04640865 13.01331283 86.08191257 26.02660586 86.10362434 39.0399847 C86.11404664 45.08308276 86.12817753 51.12612406 86.15087891 57.16918945 C86.17266259 63.00470599 86.18458031 68.84016805 86.18975449 74.67572212 C86.19344032 76.89837056 86.20063778 79.12101613 86.21146011 81.34364128 C86.22604836 84.46475467 86.22797487 87.58564493 86.22705078 90.70678711 C86.23783661 92.07488777 86.23783661 92.07488777 86.24884033 93.47062683 C86.21154192 105.16757125 83.38296265 115.69650419 75.1875 124.375 C65.92713361 132.97762074 53.97435123 135.58242517 41.625 135.5 C40.61421387 135.49355469 39.60342773 135.48710937 38.56201172 135.48046875 C27.54643468 135.210714 19.10015113 132.20639426 11.0390625 124.51171875 C3.3636999 115.05720122 -0.31967037 103.96303467 -0.22705078 91.95556641 C-0.22734283 90.95982605 -0.22763489 89.96408569 -0.22793579 88.93817139 C-0.22654663 85.65921196 -0.21100473 82.38048205 -0.1953125 79.1015625 C-0.19158091 76.82327397 -0.18873462 74.54498383 -0.18673706 72.26669312 C-0.17911217 66.27931259 -0.15947341 60.29202958 -0.1373291 54.3046875 C-0.11684609 48.19141967 -0.10773009 42.07813603 -0.09765625 35.96484375 C-0.07622652 23.97651973 -0.0421043 11.98826799 0 0 Z " fill="#050505" transform="translate(254,64)"/>
<path d="M0 0 C3.96 0 7.92 0 12 0 C12.37511719 1.00417969 12.75023437 2.00835938 13.13671875 3.04296875 C13.65361475 4.4244908 14.17054366 5.80600053 14.6875 7.1875 C15.05391602 8.16879883 15.05391602 8.16879883 15.42773438 9.16992188 C17.0402306 13.4767156 18.6804216 17.77205111 20.3359375 22.0625 C23.25040071 29.62825113 26.09601151 37.21913347 28.9375 44.8125 C29.44200437 46.15952503 29.94656154 47.50653028 30.45117188 48.85351562 C31.20689829 50.8708978 31.96251844 52.88831937 32.71775818 54.90588379 C34.01262492 58.36500572 35.30888486 61.82359569 36.60766602 65.28125 C39.11959371 71.9695065 41.61882664 78.66145364 44.0625 85.375 C46.41347197 91.82198801 48.85501688 98.23107138 51.3359375 104.62890625 C51.93358224 106.17461491 52.53115657 107.7203508 53.12866211 109.26611328 C54.02962651 111.59650084 54.93293359 113.92583617 55.84378052 116.25238037 C56.70252743 118.44596322 57.55309968 120.64256779 58.40234375 122.83984375 C58.79557327 123.83402061 58.79557327 123.83402061 59.19674683 124.84828186 C60.47338669 128.17373281 61 130.3710723 61 134 C57.37 134 53.74 134 50 134 C38 104 26 74 14 44 C8.39 43.67 2.78 43.34 -3 43 C-3.33 44.65 -3.66 46.3 -4 48 C-4.45153849 49.31861958 -4.94113783 50.62481835 -5.46777344 51.9152832 C-5.76655396 52.65363403 -6.06533447 53.39198486 -6.37316895 54.15270996 C-6.69861694 54.94407349 -7.02406494 55.73543701 -7.359375 56.55078125 C-7.70029175 57.38975952 -8.0412085 58.22873779 -8.39245605 59.09313965 C-9.5075517 61.83461055 -10.62878054 64.57352867 -11.75 67.3125 C-12.52224301 69.20840112 -13.29404946 71.10448011 -14.06542969 73.00073242 C-16.00637797 77.7696828 -17.95197444 82.53672047 -19.89892578 87.30322266 C-22.41738602 93.47149578 -24.92775763 99.64305991 -27.43713379 105.81503296 C-28.22327105 107.74681859 -29.0113423 109.677805 -29.79980469 111.60864258 C-32.9619546 119.37128875 -36.02109059 127.16527249 -39 135 C-42.3 135 -45.6 135 -49 135 C-47.26138116 129.00176499 -45.34966388 123.13833873 -43.19970703 117.27612305 C-42.09296842 114.25387529 -40.99758555 111.2278532 -39.90658569 108.1999054 C-38.88873065 105.37582479 -37.86734127 102.55302686 -36.84594727 99.73022461 C-36.32442811 98.28723035 -35.80391702 96.84387135 -35.28442383 95.40014648 C-32.4135001 87.42435303 -29.43270799 79.5465712 -26.11889648 71.74145508 C-24.35511677 67.41994462 -22.9237878 63.00525696 -21.5 58.5625 C-19.25378515 51.68762866 -16.91651227 44.8996126 -14.23828125 38.1796875 C-12.80054751 34.48784123 -11.45656735 30.76625496 -10.1081543 27.04101562 C-8.19259106 21.78429482 -6.21903871 16.5493733 -4.25 11.3125 C-3.63318359 9.66991211 -3.63318359 9.66991211 -3.00390625 7.99414062 C-2.00311243 5.32923615 -1.00162923 2.66459059 0 0 Z " fill="#F7F7F7" transform="translate(174,19)"/>
<path d="M0 0 C15.18 0 30.36 0 46 0 C46 3.63 46 7.26 46 11 C41.05 11 36.1 11 31 11 C31 49.61 31 88.22 31 128 C35.95 128 40.9 128 46 128 C46 131.63 46 135.26 46 139 C30.82 139 15.64 139 0 139 C0 135.37 0 131.74 0 128 C4.95 128 9.9 128 15 128 C15 89.39 15 50.78 15 11 C10.05 11 5.1 11 0 11 C0 7.37 0 3.74 0 0 Z " fill="#FCFCFC" transform="translate(275,17)"/>
<path d="M0 0 C0.66 0 1.32 0 2 0 C6.67621525 11.80888678 11.34127256 23.62213658 15.99273682 35.4407959 C16.64839386 37.10665664 17.30426643 38.77243258 17.96038818 40.43811035 C19.69664374 44.84676715 21.42768019 49.25739374 23.14978027 53.67160034 C23.67364012 55.01224073 24.19926707 56.35219199 24.72668457 57.69143677 C25.45671684 59.54631053 26.17971712 61.40394735 26.90234375 63.26171875 C27.30960693 64.30287842 27.71687012 65.34403809 28.13647461 66.41674805 C29 69 29 69 29 72 C10.19 72 -8.62 72 -28 72 C-27.244164 68.22081998 -26.44990269 65.30429369 -25.05395508 61.78930664 C-24.45246391 60.26600487 -24.45246391 60.26600487 -23.83882141 58.71192932 C-23.40345566 57.62234421 -22.9680899 56.53275909 -22.51953125 55.41015625 C-22.0690593 54.27404404 -21.61858734 53.13793182 -21.15446472 51.96739197 C-20.19897182 49.56006696 -19.24142469 47.15355644 -18.28198242 44.74780273 C-16.83108306 41.10910429 -15.38665873 37.46789059 -13.94335938 33.82617188 C-9.44094201 22.48725919 -4.92948457 11.16136504 0 0 Z " fill="#FAFAFA" transform="translate(179,82)"/>
<path d="M0 0 C3.63 0 7.26 0 11 0 C11.00586624 1.2306015 11.01173248 2.461203 11.01777649 3.72909546 C11.07510122 15.35186216 11.14791383 26.97444352 11.23571491 38.5970211 C11.28035647 44.57166559 11.31962641 50.54624286 11.34643555 56.52099609 C11.37253032 62.29181327 11.41297666 68.06237092 11.46318626 73.83302689 C11.47981321 76.02968736 11.49135337 78.22639267 11.49761391 80.42310715 C11.50730033 83.51069812 11.5354142 86.59763135 11.56762695 89.68505859 C11.56619186 90.58417969 11.56475677 91.48330078 11.5632782 92.40966797 C11.70400106 102.00764508 13.8451284 109.97119611 20.52734375 117.015625 C24.8453559 120.48094913 29.78686278 122.27097616 35 124 C35 126.64 35 129.28 35 132 C26.76671175 132.93560094 19.49812136 129.24407786 12.6875 124.875 C3.12472022 114.64504954 -0.50706788 103.39500842 -0.34057617 89.5715332 C-0.34101425 88.59456985 -0.34145233 87.61760651 -0.34190369 86.61103821 C-0.33983561 83.42407311 -0.31659903 80.23765293 -0.29296875 77.05078125 C-0.28736574 74.82448107 -0.28309898 72.59817717 -0.28010559 70.37187195 C-0.26871238 64.54397163 -0.23929314 58.71629959 -0.20599365 52.88848877 C-0.17517317 46.92894579 -0.16157475 40.96936552 -0.14648438 35.00976562 C-0.11441782 23.33974407 -0.06328891 11.6698911 0 0 Z " fill="#F7F7F7" transform="translate(22,20)"/>
<path d="M0 0 C3.3 0 6.6 0 10 0 C10.09299305 12.81379873 10.16391331 25.62751616 10.20724869 38.44158459 C10.22805551 44.39273756 10.25624646 50.34365835 10.30175781 56.29467773 C10.34546242 62.04593985 10.36918895 67.79697969 10.37950897 73.54839516 C10.38685633 75.73427131 10.40120314 77.92013636 10.42292023 80.10591698 C10.70582776 109.78070328 10.70582776 109.78070328 0 121 C-7.08705669 128.1537584 -13.96959407 131.37309963 -24 132 C-24 129.03 -24 126.06 -24 123 C-23.02160156 122.65388672 -23.02160156 122.65388672 -22.0234375 122.30078125 C-13.1205148 118.97859918 -8.24198991 115.32839242 -4.078125 106.6953125 C-1.41829504 100.0457376 -0.69857168 94.41213317 -0.68115234 87.30102539 C-0.67110672 86.35390686 -0.6610611 85.40678833 -0.65071106 84.43096924 C-0.61997424 81.31987073 -0.60287032 78.20885791 -0.5859375 75.09765625 C-0.56721822 72.93288948 -0.54764424 70.76812995 -0.5272522 68.6033783 C-0.4760054 62.92024001 -0.43633974 57.23707809 -0.39910889 51.55383301 C-0.35902253 45.74872018 -0.30795132 39.94370504 -0.2578125 34.13867188 C-0.16114143 22.75918329 -0.07670841 11.37963944 0 0 Z " fill="#FBFBFB" transform="translate(95,20)"/>
<path d="M0 0 C15.18 0 30.36 0 46 0 C46 3.63 46 7.26 46 11 C41.05 11 36.1 11 31 11 C31 49.61 31 88.22 31 128 C35.95 128 40.9 128 46 128 C46 131.63 46 135.26 46 139 C30.82 139 15.64 139 0 139 C0 135.37 0 131.74 0 128 C4.95 128 9.9 128 15 128 C15 89.39 15 50.78 15 11 C10.05 11 5.1 11 0 11 C0 7.37 0 3.74 0 0 Z M3 3 C3 4.65 3 6.3 3 8 C7.95 8 12.9 8 18 8 C18 48.59 18 89.18 18 131 C13.05 131 8.1 131 3 131 C3 132.65 3 134.3 3 136 C16.2 136 29.4 136 43 136 C43 134.35 43 132.7 43 131 C38.05 131 33.1 131 28 131 C28 90.41 28 49.82 28 8 C32.95 8 37.9 8 43 8 C43 6.35 43 4.7 43 3 C29.8 3 16.6 3 3 3 Z " fill="#010101" transform="translate(275,17)"/>
<path d="M0 0 C5.28 0 10.56 0 16 0 C18.75390625 7.34375 18.75390625 7.34375 19.71026611 9.89408875 C21.34156735 14.24429283 22.97296176 18.59446195 24.60449219 22.94458008 C28.0544475 32.143402 31.50332124 41.34262593 34.94921875 50.54296875 C40.62879059 65.70479302 46.31475264 80.86386698 52.0625 96 C52.50819336 97.17433594 52.95388672 98.34867187 53.41308594 99.55859375 C55.23872826 104.36746674 57.06671086 109.17540065 58.90234375 113.98046875 C61.54153269 120.91520254 64.03765522 127.8391629 66 135 C65.34 135 64.68 135 64 135 C64 135.99 64 136.98 64 138 C60.37 138 56.74 138 53 138 C53 137.67 53 137.34 53 137 C56.3 137 59.6 137 63 137 C59.56259972 126.90263669 56.0296472 116.87808908 52 107 C48.93691555 99.48689959 46.13362098 91.91794467 43.52148438 84.23632812 C41.61752947 78.6574079 39.53794789 73.16148881 37.4074707 67.6652832 C35.84489547 63.59608251 34.32162656 59.51359928 32.80859375 55.42578125 C32.53364578 54.68330643 32.25869781 53.9408316 31.97541809 53.17585754 C30.84289718 50.11562746 29.71165877 47.0549254 28.58129883 43.99389648 C25.74819377 36.32512801 22.91147053 28.66717456 19.83813477 21.09057617 C18.56658576 17.91892626 17.40291554 14.71677668 16.25 11.5 C15.82203125 10.3140625 15.3940625 9.128125 14.953125 7.90625 C14 5 14 5 14 3 C10.04 3 6.08 3 2 3 C1.57460937 4.43601562 1.14921875 5.87203125 0.7109375 7.3515625 C-2.87540091 19.29621365 -6.65204037 31.21720027 -11.62109375 42.6640625 C-16.57016611 54.63717241 -20.78946786 66.97214172 -24.69921875 79.3203125 C-25.82213213 82.49684224 -27.05654444 85.56236723 -28.3671875 88.6640625 C-30.94693756 94.78639022 -33.22389817 100.98753347 -35.4375 107.25 C-38.51811146 115.90667949 -41.67706659 124.52090314 -45.00390625 133.0859375 C-46.16172431 135.95985548 -46.16172431 135.95985548 -46 139 C-43.69 139.33 -41.38 139.66 -39 140 C-39 140.33 -39 140.66 -39 141 C-42.96 141 -46.92 141 -51 141 C-48.84630248 133.57687993 -46.3913929 126.31969071 -43.74609375 119.05859375 C-43.33289383 117.91780869 -42.91969391 116.77702362 -42.49397278 115.60166931 C-41.37649274 112.51875277 -40.25648988 109.43676901 -39.13508606 106.35527802 C-38.1965116 103.77498353 -37.25990571 101.19397618 -36.32322121 98.61299515 C-29.99878669 81.18817113 -23.63903203 63.77624225 -17.25 46.375 C-16.89485321 45.40738739 -16.53970642 44.43977478 -16.17379761 43.44284058 C-10.84698307 28.93759127 -5.4397403 14.46325366 0 0 Z " fill="#202020" transform="translate(172,16)"/>
<path d="M0 0 C5.28 0 10.56 0 16 0 C16.06970115 13.22224949 16.12291323 26.44445482 16.15543652 39.66685104 C16.17105093 45.80742664 16.19221185 51.94787596 16.22631836 58.08837891 C16.25906264 64.02117392 16.27688474 69.95384793 16.28463173 75.88672638 C16.29014826 78.14319003 16.3009203 80.39964753 16.31719017 82.65605927 C16.43729627 100.01322205 16.41897174 114.01064659 3.859375 127.2578125 C-3.26542665 134.00893574 -10.23931513 137.29013201 -20 138 C-20.33 137.01 -20.66 136.02 -21 135 C-20.31035156 134.84144531 -19.62070313 134.68289062 -18.91015625 134.51953125 C-7.75691206 131.75034442 0.28999773 127.60957338 7 118 C11.20072321 109.82922913 12.14850774 102.30572927 12.20532227 93.25268555 C12.21522186 92.27659836 12.22512146 91.30051117 12.23532104 90.29484558 C12.26685387 87.07549446 12.29166101 83.8561286 12.31640625 80.63671875 C12.33698287 78.40183636 12.35797953 76.16695779 12.37937927 73.93208313 C12.4345268 68.05491237 12.48396836 62.17770691 12.53222656 56.30047607 C12.58249503 50.30119749 12.63815319 44.30196919 12.69335938 38.30273438 C12.80085143 26.53519922 12.90231627 14.76762038 13 3 C9.7 3 6.4 3 3 3 C3.00888245 4.18857605 3.01776489 5.3771521 3.0269165 6.60174561 C3.10824859 17.84108856 3.16808328 29.08037125 3.20724869 40.31994247 C3.22806141 46.09737226 3.25626329 51.87456314 3.30175781 57.65185547 C3.34544121 63.23453345 3.36918453 68.81698262 3.37950897 74.39981842 C3.3868601 76.52232714 3.40121447 78.64482434 3.42292023 80.7672348 C3.56433795 95.17740505 3.68805702 108.96544737 -7 120 C-11.16243581 123.36537363 -14.89069225 124.77376614 -20 126 C-20.33 125.01 -20.66 124.02 -21 123 C-20.19175781 122.64808594 -19.38351563 122.29617187 -18.55078125 121.93359375 C-10.48842042 118.20876359 -6.65800175 115.44890359 -2.75 107.4375 C-0.89631554 101.41302552 -0.83441265 95.47309313 -0.79467773 89.23095703 C-0.77982834 87.78123756 -0.77982834 87.78123756 -0.76467896 86.30223083 C-0.73319541 83.12078263 -0.70835864 79.93931951 -0.68359375 76.7578125 C-0.66301287 74.54677959 -0.6420161 72.33575052 -0.62062073 70.12472534 C-0.56551722 64.31497306 -0.51605636 58.50518597 -0.46777344 52.69537354 C-0.4174727 46.76303013 -0.36183143 40.83073707 -0.30664062 34.8984375 C-0.19920246 23.26566805 -0.0977258 11.63285481 0 0 Z " fill="#181818" transform="translate(92,17)"/>
<path d="M0 0 C5.61 0 11.22 0 17 0 C17.0231312 13.13421951 17.04091907 26.26843421 17.05181217 39.40266991 C17.05703929 45.50087578 17.06413386 51.59906775 17.07543945 57.69726562 C17.08627438 63.57813275 17.09227813 69.45898649 17.09487724 75.33986282 C17.09673039 77.58782792 17.10034892 79.83579226 17.10573006 82.08375168 C17.11294849 85.22300575 17.1139906 88.36220386 17.11352539 91.50146484 C17.11712067 92.43869888 17.12071594 93.37593292 17.12442017 94.34156799 C17.1230455 95.19414688 17.12167084 96.04672577 17.12025452 96.92514038 C17.12117631 97.66810553 17.1220981 98.41107067 17.12304783 99.17654991 C17 101 17 101 16 103 C15.34 103 14.68 103 14 103 C14 70 14 37 14 3 C10.37 3 6.74 3 3 3 C3.03816792 15.81403408 3.0976908 28.6277785 3.18390274 41.44158459 C3.22328294 47.39262627 3.25551778 53.34352207 3.27099609 59.29467773 C3.28622496 65.04611047 3.32078083 70.79714187 3.36830902 76.54839516 C3.38305873 78.73420012 3.3910373 80.92006241 3.39188385 83.10591698 C3.35104007 105.63860032 3.35104007 105.63860032 14 125 C21.08312167 130.97925855 28.86380843 134.04831338 38 135 C38 132.36 38 129.72 38 127 C37.01 126.67 36.02 126.34 35 126 C36.32 126 37.64 126 39 126 C39 129.3 39 132.6 39 136 C37.88625 136.2165625 37.88625 136.2165625 36.75 136.4375 C34.12013122 136.91649443 34.12013122 136.91649443 32.125 137.6328125 C26.52196431 138.60098411 20.18893836 134.36579327 15.75 131.25 C7.13549366 124.28212968 1.65486035 113.94817819 0 103 C-0.14095656 99.65882198 -0.12624452 96.32098314 -0.11352539 92.97729492 C-0.11367142 91.97194702 -0.11381744 90.96659912 -0.1139679 89.93078613 C-0.11327228 86.61399158 -0.10549625 83.29725347 -0.09765625 79.98046875 C-0.09579083 77.67832978 -0.09436751 75.37619041 -0.09336853 73.0740509 C-0.08955316 67.0192861 -0.0797312 60.96454535 -0.06866455 54.90979004 C-0.05842939 48.72957688 -0.0538664 42.54935982 -0.04882812 36.36914062 C-0.03810808 24.24608319 -0.02104339 12.1230436 0 0 Z " fill="#232323" transform="translate(19,17)"/>
<path d="M0 0 C12.87 0 25.74 0 39 0 C39 3.3 39 6.6 39 10 C34.38 10 29.76 10 25 10 C25 48.94 25 87.88 25 128 C28.96 128 32.92 128 37 128 C37 128.33 37 128.66 37 129 C32.38 129 27.76 129 23 129 C23 89.07 23 49.14 23 8 C27.62 8 32.24 8 37 8 C37 5.69 37 3.38 37 1 C24.79 1 12.58 1 0 1 C0 0.67 0 0.34 0 0 Z " fill="#000000" transform="translate(281,18)"/>
<path d="M0 0 C4.95 0 9.9 0 15 0 C15 0.33 15 0.66 15 1 C10.38 1 5.76 1 1 1 C1 40.93 1 80.86 1 122 C1.99 121.01 1.99 121.01 3 120 C5.58064129 119.85502015 8.04943884 119.81322455 10.625 119.875 C11.68460937 119.88853516 11.68460937 119.88853516 12.765625 119.90234375 C14.51056098 119.92592397 16.25532295 119.96179539 18 120 C18 123.63 18 127.26 18 131 C2.82 131 -12.36 131 -28 131 C-28 127.37 -28 123.74 -28 120 C-23.05 120 -18.1 120 -13 120 C-13 120.33 -13 120.66 -13 121 C-17.62 121 -22.24 121 -27 121 C-27 123.97 -27 126.94 -27 130 C-26.01 129.01 -26.01 129.01 -25 128 C-21.98691049 127.82453518 -19.06689546 127.76872555 -16.0546875 127.8046875 C-14.72716965 127.80893234 -14.72716965 127.80893234 -13.37283325 127.81326294 C-10.54008588 127.8244776 -7.70765216 127.8495843 -4.875 127.875 C-2.95703581 127.88502815 -1.03906667 127.89415428 0.87890625 127.90234375 C5.58605876 127.92442111 10.29297616 127.95895955 15 128 C15 126.35 15 124.7 15 123 C10.05 123 5.1 123 0 123 C0 82.41 0 41.82 0 0 Z " fill="#4F4F4F" transform="translate(303,25)"/>
<path d="M0 0 C15.18 0 30.36 0 46 0 C46 3.63 46 7.26 46 11 C45.67 11 45.34 11 45 11 C45 7.7 45 4.4 45 1 C44.34 1.66 43.68 2.32 43 3 C39.98691049 3.17546482 37.06689546 3.23127445 34.0546875 3.1953125 C33.1696756 3.1924826 32.2846637 3.18965271 31.37283325 3.18673706 C28.54008588 3.1755224 25.70765216 3.1504157 22.875 3.125 C20.95703581 3.11497185 19.03906667 3.10584572 17.12109375 3.09765625 C12.41394124 3.07557889 7.70702384 3.04104045 3 3 C3 4.65 3 6.3 3 8 C7.95 8 12.9 8 18 8 C18 48.59 18 89.18 18 131 C17.67 131 17.34 131 17 131 C17 90.74 17 50.48 17 9 C16.34 9.66 15.68 10.32 15 11 C12.41935871 11.14497985 9.95056116 11.18677545 7.375 11.125 C6.66859375 11.11597656 5.9621875 11.10695313 5.234375 11.09765625 C3.48943902 11.07407603 1.74467705 11.03820461 0 11 C0 7.37 0 3.74 0 0 Z " fill="#555555" transform="translate(275,17)"/>
<path d="M0 0 C0.33 0 0.66 0 1 0 C1.09296577 12.43991617 1.16389959 24.87974874 1.20724869 37.31994247 C1.22806141 43.09737226 1.25626329 48.87456314 1.30175781 54.65185547 C1.34544121 60.23453345 1.36918453 65.81698262 1.37950897 71.39981842 C1.3868601 73.52232714 1.40121447 75.64482434 1.42292023 77.7672348 C1.56433795 92.17740505 1.68805702 105.96544737 -9 117 C-13.16243581 120.36537363 -16.89069225 121.77376614 -22 123 C-22.33 122.01 -22.66 121.02 -23 120 C-22.19175781 119.64808594 -21.38351563 119.29617187 -20.55078125 118.93359375 C-12.48842042 115.20876359 -8.65800175 112.44890359 -4.75 104.4375 C-3.90346065 101.8962988 -3.90346065 101.8962988 -3.5 98.75 C-3.335 97.8425 -3.17 96.935 -3 96 C-2.01 95.505 -2.01 95.505 -1 95 C-0.67 63.65 -0.34 32.3 0 0 Z " fill="#323232" transform="translate(94,20)"/>
<path d="M0 0 C0.495 0.99 0.495 0.99 1 2 C1.66 2 2.32 2 3 2 C1.81291548 13.38632087 -4.05260113 21.06160876 -12.67578125 28.30859375 C-18.71776158 32.7055307 -24.61578173 34.46296594 -32 35 C-32.495 33.515 -32.495 33.515 -33 32 C-32.31035156 31.84144531 -31.62070313 31.68289062 -30.91015625 31.51953125 C-19.75691206 28.75034442 -11.71000227 24.60957338 -5 15 C-2.50656944 10.15006136 -0.97789667 5.35469633 0 0 Z " fill="#1B1B1B" transform="translate(104,120)"/>
<path d="M0 0 C0.33 0.66 0.66 1.32 1 2 C1.66 2.33 2.32 2.66 3 3 C1.79313312 6.33386602 0.58431774 9.66702226 -0.625 13 C-0.98529297 13.99427002 -1.34558594 14.98854004 -1.71679688 16.01293945 C-3.40463104 20.65933779 -5.10277544 25.30003687 -6.8671875 29.91796875 C-7.28363525 31.00948242 -7.28363525 31.00948242 -7.70849609 32.12304688 C-8.22532324 33.4710698 -8.74630224 34.81751029 -9.27197266 36.16210938 C-10.3395701 38.94818709 -11 40.9837111 -11 44 C-8.69 44.33 -6.38 44.66 -4 45 C-4 45.33 -4 45.66 -4 46 C-7.96 46 -11.92 46 -16 46 C-13.25906317 36.28303262 -9.76602923 26.85523985 -6.3125 17.375 C-5.6996171 15.6862896 -5.0869848 13.99748824 -4.47460938 12.30859375 C-2.98596094 8.2046743 -1.4939233 4.10200206 0 0 Z " fill="#1B1B1B" transform="translate(137,111)"/>
<path d="M0 0 C1.81169509 2.71754263 2.61290049 4.70424259 3.625 7.75 C5.82267104 13.3589813 8.99350173 16.71028945 14 20 C17.27982433 21.46132886 17.27982433 21.46132886 20 22 C19.67 22.99 19.34 23.98 19 25 C11.6316899 24.13313999 7.04989713 19.47000984 2.484375 14.015625 C-0.34689873 10.17105331 -1.1494079 7.34467112 -0.625 2.625 C-0.41875 1.75875 -0.2125 0.8925 0 0 Z " fill="#1E1E1E" transform="translate(35,118)"/>
<path d="M0 0 C4.29 0 8.58 0 13 0 C13 0.33 13 0.66 13 1 C9.7 1.33 6.4 1.66 3 2 C2.52949219 3.35996094 2.05898437 4.71992188 1.57421875 6.12109375 C0.94592448 7.89344623 0.31698478 9.66557 -0.3125 11.4375 C-0.62123047 12.33533203 -0.92996094 13.23316406 -1.24804688 14.15820312 C-1.55419922 15.01220703 -1.86035156 15.86621094 -2.17578125 16.74609375 C-2.45333252 17.53685303 -2.73088379 18.3276123 -3.0168457 19.14233398 C-4 21 -4 21 -7 22 C-6.44147333 16.5632024 -5.06042383 12.0816633 -2.9375 7.0625 C-2.65583984 6.37865234 -2.37417969 5.69480469 -2.08398438 4.99023438 C-1.3964595 3.32386054 -0.69923825 1.66149273 0 0 Z " fill="#191919" transform="translate(172,17)"/>
<path d="M0 0 C5.28 0 10.56 0 16 0 C16.99 3.3 17.98 6.6 19 10 C18.34 10 17.68 10 17 10 C16.67 10.66 16.34 11.32 16 12 C15.34 9.03 14.68 6.06 14 3 C12.86111328 3.05220703 12.86111328 3.05220703 11.69921875 3.10546875 C10.70535156 3.13253906 9.71148437 3.15960937 8.6875 3.1875 C7.70136719 3.22230469 6.71523437 3.25710937 5.69921875 3.29296875 C3 3 3 3 0 0 Z " fill="#333333" transform="translate(172,16)"/>
<path d="M0 0 C2.38125464 2.38125464 3.00186241 4.33857567 4.125 7.5 C4.65480469 8.96953125 4.65480469 8.96953125 5.1953125 10.46875 C6 13 6 13 6 15 C5.34 15 4.68 15 4 15 C4 15.99 4 16.98 4 18 C0.37 18 -3.26 18 -7 18 C-7 17.67 -7 17.34 -7 17 C-3.7 17 -0.4 17 3 17 C2.69964844 16.19175781 2.39929688 15.38351563 2.08984375 14.55078125 C1.51943359 12.94783203 1.51943359 12.94783203 0.9375 11.3125 C0.55464844 10.25675781 0.17179688 9.20101562 -0.22265625 8.11328125 C-1.0233052 4.90666208 -0.9237249 3.1313693 0 0 Z " fill="#242424" transform="translate(232,136)"/>
<path d="M0 0 C0.99 0.33 1.98 0.66 3 1 C4.38671875 3.87109375 4.38671875 3.87109375 5.6875 7.4375 C6.12449219 8.61183594 6.56148437 9.78617188 7.01171875 10.99609375 C8 14 8 14 8 16 C7.34 16 6.68 16 6 16 C5.67 16.66 5.34 17.32 5 18 C4.16112944 15.56427941 3.32873471 13.12666783 2.5 10.6875 C2.14228516 9.65206055 2.14228516 9.65206055 1.77734375 8.59570312 C0.76791737 5.61068511 0 3.17341086 0 0 Z " fill="#282828" transform="translate(189,26)"/>
<path d="M0 0 C1.6852084 4.07679159 0.16939007 6.83075593 -1.4375 10.75 C-1.91058594 11.92046875 -2.38367188 13.0909375 -2.87109375 14.296875 C-3.24363281 15.18890625 -3.61617187 16.0809375 -4 17 C-4.66 17 -5.32 17 -6 17 C-5.51947285 11.35380599 -4.17262158 4.17262158 0 0 Z " fill="#141414" transform="translate(144,96)"/>
<path d="M0 0 C1.32 0 2.64 0 4 0 C4 3.3 4 6.6 4 10 C3.2575 10.144375 2.515 10.28875 1.75 10.4375 C-0.89480335 10.91221978 -0.89480335 10.91221978 -2.9375 11.6875 C-5.95864618 12.14524942 -8.19765325 11.08272488 -11 10 C-10.34 9.01 -9.68 8.02 -9 7 C-3.06 7.99 -3.06 7.99 3 9 C3 6.36 3 3.72 3 1 C2.01 0.67 1.02 0.34 0 0 Z " fill="#444444" transform="translate(54,143)"/>
<path d="M0 0 C0.99 0.33 1.98 0.66 3 1 C2.21824485 5.84688192 0.60155722 10.3766367 -1 15 C-1.99 14.34 -2.98 13.68 -4 13 C-3.52140759 11.39566191 -3.04210442 9.79153584 -2.5625 8.1875 C-2.29566406 7.29417969 -2.02882812 6.40085937 -1.75390625 5.48046875 C-1.19612127 3.64526945 -0.60655425 1.81966274 0 0 Z " fill="#242424" transform="translate(147,84)"/>
<path d="M0 0 C0.66 0 1.32 0 2 0 C2 3.3 2 6.6 2 10 C-2.62 10 -7.24 10 -12 10 C-12 9.67 -12 9.34 -12 9 C-6.06 8.505 -6.06 8.505 0 8 C0 5.36 0 2.72 0 0 Z " fill="#070707" transform="translate(318,18)"/>
<path d="M0 0 C0.33 0.66 0.66 1.32 1 2 C1.66 2.33 2.32 2.66 3 3 C2.01 6.3 1.02 9.6 0 13 C-0.99 13 -1.98 13 -3 13 C-4 11 -4 11 -3.22265625 8.3984375 C-2.83980469 7.40070312 -2.45695313 6.40296875 -2.0625 5.375 C-1.68222656 4.37210938 -1.30195313 3.36921875 -0.91015625 2.3359375 C-0.60980469 1.56507812 -0.30945313 0.79421875 0 0 Z " fill="#2D2D2D" transform="translate(164,37)"/>
<path d="M0 0 C0.68707555 2.49064888 1 4.37886292 1 7 C3.31 7.33 5.62 7.66 8 8 C8 8.33 8 8.66 8 9 C4.04 9 0.08 9 -4 9 C-2.25 2.25 -2.25 2.25 0 0 Z " fill="#3E3E3E" transform="translate(125,148)"/>
<path d="M0 0 C0.66 0.33 1.32 0.66 2 1 C0.99382318 3.67576692 0.45785454 4.7785108 -2.1640625 6.046875 C-2.97617188 6.27890625 -3.78828125 6.5109375 -4.625 6.75 C-5.85089844 7.11351562 -5.85089844 7.11351562 -7.1015625 7.484375 C-8.04128906 7.73960937 -8.04128906 7.73960937 -9 8 C-9.33 7.01 -9.66 6.02 -10 5 C-8.38007835 4.13624104 -6.75388139 3.28424146 -5.125 2.4375 C-4.22007813 1.96183594 -3.31515625 1.48617187 -2.3828125 0.99609375 C-1.20332031 0.50302734 -1.20332031 0.50302734 0 0 Z " fill="#252525" transform="translate(81,135)"/>
<path d="M0 0 C0.33 0.66 0.66 1.32 1 2 C1.66 2.33 2.32 2.66 3 3 C2.6017125 4.29745172 2.18056078 5.5878981 1.75 6.875 C1.51796875 7.59429687 1.2859375 8.31359375 1.046875 9.0546875 C-0.25137839 11.46711358 -1.49377424 12.01615105 -4 13 C-3.52140759 11.39566191 -3.04210442 9.79153584 -2.5625 8.1875 C-2.29566406 7.29417969 -2.02882812 6.40085937 -1.75390625 5.48046875 C-1.19612127 3.64526945 -0.60655425 1.81966274 0 0 Z " fill="#242424" transform="translate(137,111)"/>
<path d="M0 0 C0.33 0.66 0.66 1.32 1 2 C1.66 2 2.32 2 3 2 C2.34 5.3 1.68 8.6 1 12 C0.01 11.67 -0.98 11.34 -2 11 C-1.34 7.37 -0.68 3.74 0 0 Z " fill="#2E2E2E" transform="translate(104,120)"/>
<path d="M0 0 C0.66 0 1.32 0 2 0 C4.15305957 3.85756507 5.39253254 6.55129785 5 11 C4.34 11 3.68 11 3 11 C2.49384702 9.73160474 1.99530901 8.46016898 1.5 7.1875 C1.2215625 6.47980469 0.943125 5.77210938 0.65625 5.04296875 C0 3 0 3 0 0 Z " fill="#111111" transform="translate(227,127)"/>
<path d="M0 0 C1.39195915 4.17587745 -0.17676781 6.13474776 -2 10 C-2.66 10 -3.32 10 -4 10 C-3.38461538 3.47692308 -3.38461538 3.47692308 -1.4375 1.0625 C-0.7259375 0.5365625 -0.7259375 0.5365625 0 0 Z " fill="#141414" transform="translate(135,122)"/>
<path d="M0 0 C0.99 0.33 1.98 0.66 3 1 C4.1875 4.5625 4.1875 4.5625 5 8 C4.01 8.33 3.02 8.66 2 9 C1.34 6.03 0.68 3.06 0 0 Z " fill="#1B1B1B" transform="translate(189,26)"/>
<path d="M0 0 C0.33 0.66 0.66 1.32 1 2 C1.66 2.33 2.32 2.66 3 3 C2.34 5.31 1.68 7.62 1 10 C0.01 9.34 -0.98 8.68 -2 8 C-1.34 5.36 -0.68 2.72 0 0 Z " fill="#2F2F2F" transform="translate(130,130)"/>
<path d="M0 0 C0.93423645 3.01031744 1.04449911 3.86650268 0 7 C-2.0625 8.1875 -2.0625 8.1875 -4 9 C-2.25 2.25 -2.25 2.25 0 0 Z " fill="#1E1E1E" transform="translate(144,96)"/>
<path d="M0 0 C0.99 0.33 1.98 0.66 3 1 C3.33 3.31 3.66 5.62 4 8 C3.01 8.495 3.01 8.495 2 9 C1.34 6.03 0.68 3.06 0 0 Z " fill="#121212" transform="translate(212,87)"/>
<path d="M0 0 C0.99 0.33 1.98 0.66 3 1 C3.33 3.31 3.66 5.62 4 8 C3.34 8 2.68 8 2 8 C0.74335022 5.09399739 0 3.20395416 0 0 Z " fill="#141414" transform="translate(195,42)"/>
<path d="M0 0 C0.99 0.33 1.98 0.66 3 1 C3.33 3.31 3.66 5.62 4 8 C3.34 8 2.68 8 2 8 C0.74335022 5.09399739 0 3.20395416 0 0 Z " fill="#101010" transform="translate(218,103)"/>
<path d="M0 0 C2.29013653 3.4352048 2.17842973 4.985331 2 9 C1.34 9 0.68 9 0 9 C-1.125 2.25 -1.125 2.25 0 0 Z " fill="#161616" transform="translate(35,118)"/>
<path d="M0 0 C4.29 0 8.58 0 13 0 C13 0.33 13 0.66 13 1 C11.95199219 1.07347656 11.95199219 1.07347656 10.8828125 1.1484375 C9.97273437 1.22320313 9.06265625 1.29796875 8.125 1.375 C7.22007812 1.44460937 6.31515625 1.51421875 5.3828125 1.5859375 C2.82058097 1.79568132 2.82058097 1.79568132 1 4 C0.67 2.68 0.34 1.36 0 0 Z " fill="#050505" transform="translate(172,17)"/>
<path d="M0 0 C0.99 0.33 1.98 0.66 3 1 C2.67 2.65 2.34 4.3 2 6 C0.68 6.33 -0.64 6.66 -2 7 C-1.34 4.69 -0.68 2.38 0 0 Z " fill="#333333" transform="translate(147,84)"/>
<path d="M0 0 C0.66 0.33 1.32 0.66 2 1 C1.67 3.31 1.34 5.62 1 8 C0.01 7.67 -0.98 7.34 -2 7 C-1.34 4.69 -0.68 2.38 0 0 Z " fill="#222222" transform="translate(171,19)"/>
<path d="M0 0 C1.4606285 2.64738916 2 3.89448334 2 7 C1.01 7.33 0.02 7.66 -1 8 C-1.625 5.125 -1.625 5.125 -2 2 C-1.34 1.34 -0.68 0.68 0 0 Z " fill="#363636" transform="translate(22,120)"/>
<path d="M0 0 C0.99 0 1.98 0 3 0 C3.33 1.65 3.66 3.3 4 5 C3.34 5 2.68 5 2 5 C1.67 5.66 1.34 6.32 1 7 C0.67 4.69 0.34 2.38 0 0 Z " fill="#2A2A2A" transform="translate(187,21)"/>
</svg>
