<?xml version="1.0" encoding="UTF-8"?>
<!DOCTYPE svg PUBLIC "-//W3C//DTD SVG 1.1//EN" "http://www.w3.org/Graphics/SVG/1.1/DTD/svg11.dtd">
<svg xmlns="http://www.w3.org/2000/svg" version="1.1" width="362px" height="210px" style="shape-rendering:geometricPrecision; text-rendering:geometricPrecision; image-rendering:optimizeQuality; fill-rule:evenodd; clip-rule:evenodd" xmlns:xlink="http://www.w3.org/1999/xlink">
<g><path style="opacity:1" fill="#fdfdfd" d="M -0.5,-0.5 C 120.167,-0.5 240.833,-0.5 361.5,-0.5C 361.5,69.5 361.5,139.5 361.5,209.5C 240.833,209.5 120.167,209.5 -0.5,209.5C -0.5,139.5 -0.5,69.5 -0.5,-0.5 Z"/></g>
<g><path style="opacity:1" fill="#1c1c1c" d="M 187.5,16.5 C 183.007,16.9758 178.673,17.6424 174.5,18.5C 162.222,50.0565 150.222,81.7232 138.5,113.5C 138.158,112.662 137.492,112.328 136.5,112.5C 148.369,80.225 160.036,47.8917 171.5,15.5C 177.026,15.1786 182.36,15.5119 187.5,16.5 Z"/></g>
<g><path style="opacity:1" fill="#0b0b0b" d="M 187.5,16.5 C 204.698,62.0956 221.698,107.762 238.5,153.5C 233.983,154.166 229.317,154.833 224.5,155.5C 224.624,156.107 224.957,156.44 225.5,156.5C 231.55,170.311 237.217,184.311 242.5,198.5C 236.833,199.833 231.167,199.833 225.5,198.5C 221.293,187.875 217.293,177.209 213.5,166.5C 190.49,166.167 167.49,166.5 144.5,167.5C 140.293,178.125 136.293,188.791 132.5,199.5C 126.794,199.829 121.128,199.495 115.5,198.5C 121.372,184.21 127.039,169.877 132.5,155.5C 131.167,155.5 129.833,155.5 128.5,155.5C 125.941,155.802 123.607,155.468 121.5,154.5C 126.104,140.355 131.104,126.355 136.5,112.5C 137.492,112.328 138.158,112.662 138.5,113.5C 134.238,126.617 129.571,139.617 124.5,152.5C 127.768,153.487 131.102,153.82 134.5,153.5C 146.5,122.833 158.5,92.1667 170.5,61.5C 176.425,61.1918 182.259,61.5251 188,62.5C 200.13,92.4198 211.963,122.42 223.5,152.5C 227.167,152.5 230.833,152.5 234.5,152.5C 218.841,108.361 202.674,64.3606 186,20.5C 182.506,18.623 178.673,17.9564 174.5,18.5C 178.673,17.6424 183.007,16.9758 187.5,16.5 Z"/></g>
<g><path style="opacity:1" fill="#525252" d="M 320.5,27.5 C 320.167,27.5 319.833,27.5 319.5,27.5C 319.5,24.1667 319.5,20.8333 319.5,17.5C 304.833,17.5 290.167,17.5 275.5,17.5C 275.5,20.8333 275.5,24.1667 275.5,27.5C 274.518,24.0381 274.185,20.3714 274.5,16.5C 289.833,16.5 305.167,16.5 320.5,16.5C 320.5,20.1667 320.5,23.8333 320.5,27.5 Z"/></g>
<g><path style="opacity:1" fill="#101010" d="M 72.5,154.5 C 70.5203,166.455 69.8536,178.788 70.5,191.5C 75.1667,191.5 79.8333,191.5 84.5,191.5C 84.5,193.833 84.5,196.167 84.5,198.5C 70.5,198.5 56.5,198.5 42.5,198.5C 42.5,196.167 42.5,193.833 42.5,191.5C 47.1667,191.5 51.8333,191.5 56.5,191.5C 56.5,179.167 56.5,166.833 56.5,154.5C 37.6427,152.822 25.4761,142.822 20,124.5C 18.533,88.8739 18.033,53.2072 18.5,17.5C 23.8333,17.5 29.1667,17.5 34.5,17.5C 34.1684,51.0042 34.5017,84.3375 35.5,117.5C 37.3028,129.967 44.3028,137.634 56.5,140.5C 57.4973,119.006 57.8307,97.3398 57.5,75.5C 52.5,75.5 47.5,75.5 42.5,75.5C 42.5,73.1667 42.5,70.8333 42.5,68.5C 56.5,68.5 70.5,68.5 84.5,68.5C 84.5,70.8333 84.5,73.1667 84.5,75.5C 79.6367,75.1805 74.97,75.5139 70.5,76.5C 70.5,97.5 70.5,118.5 70.5,139.5C 82.2661,136.897 89.0994,129.563 91,117.5C 91.5,83.835 91.6667,50.1683 91.5,16.5C 96.8333,16.5 102.167,16.5 107.5,16.5C 107.667,50.835 107.5,85.1683 107,119.5C 103.354,138.979 91.8542,150.645 72.5,154.5 Z"/></g>
<g><path style="opacity:1" fill="#717171" d="M 18.5,17.5 C 23.9753,16.5111 29.642,16.1778 35.5,16.5C 35.5,50.1667 35.5,83.8333 35.5,117.5C 34.5017,84.3375 34.1684,51.0042 34.5,17.5C 29.1667,17.5 23.8333,17.5 18.5,17.5 Z"/></g>
<g><path style="opacity:1" fill="#f6f6f6" d="M 174.5,18.5 C 178.673,17.9564 182.506,18.623 186,20.5C 202.674,64.3606 218.841,108.361 234.5,152.5C 230.833,152.5 227.167,152.5 223.5,152.5C 211.963,122.42 200.13,92.4198 188,62.5C 182.259,61.5251 176.425,61.1918 170.5,61.5C 158.5,92.1667 146.5,122.833 134.5,153.5C 131.102,153.82 127.768,153.487 124.5,152.5C 129.571,139.617 134.238,126.617 138.5,113.5C 150.222,81.7232 162.222,50.0565 174.5,18.5 Z"/></g>
<g><path style="opacity:1" fill="#f7f7f7" d="M 56.5,143.5 C 56.5,146.167 56.5,148.833 56.5,151.5C 54.8333,151.5 53.1667,151.5 51.5,151.5C 34.6358,147.512 24.8024,136.845 22,119.5C 21.5,86.1683 21.3333,52.835 21.5,19.5C 25.1667,19.5 28.8333,19.5 32.5,19.5C 32.3333,52.835 32.5,86.1683 33,119.5C 35.62,132.62 43.4534,140.62 56.5,143.5 Z"/></g>
<g><path style="opacity:1" fill="#fafafa" d="M 94.5,19.5 C 97.8333,19.5 101.167,19.5 104.5,19.5C 104.974,54.882 104.474,90.2154 103,125.5C 97.6599,141.004 86.8266,149.671 70.5,151.5C 70.1826,148.428 70.5159,145.428 71.5,142.5C 83.2048,139.628 90.3715,132.295 93,120.5C 94.4576,86.8688 94.9576,53.2021 94.5,19.5 Z"/></g>
<g><path style="opacity:1" fill="#0a0a0a" d="M 319.5,27.5 C 314.833,27.5 310.167,27.5 305.5,27.5C 305.5,66.5 305.5,105.5 305.5,144.5C 309.97,145.486 314.637,145.819 319.5,145.5C 319.5,148.833 319.5,152.167 319.5,155.5C 304.833,155.5 290.167,155.5 275.5,155.5C 275.5,152.167 275.5,148.833 275.5,145.5C 280.167,145.5 284.833,145.5 289.5,145.5C 289.832,105.996 289.499,66.6631 288.5,27.5C 284.167,27.5 279.833,27.5 275.5,27.5C 275.5,24.1667 275.5,20.8333 275.5,17.5C 290.167,17.5 304.833,17.5 319.5,17.5C 319.5,20.8333 319.5,24.1667 319.5,27.5 Z"/></g>
<g><path style="opacity:1" fill="#fcfcfc" d="M 317.5,24.5 C 312.5,24.5 307.5,24.5 302.5,24.5C 302.168,65.6701 302.501,106.67 303.5,147.5C 308.167,147.5 312.833,147.5 317.5,147.5C 317.5,149.167 317.5,150.833 317.5,152.5C 304.167,152.5 290.833,152.5 277.5,152.5C 277.5,150.833 277.5,149.167 277.5,147.5C 282.167,147.5 286.833,147.5 291.5,147.5C 292.499,106.67 292.832,65.6701 292.5,24.5C 287.5,24.5 282.5,24.5 277.5,24.5C 277.5,22.8333 277.5,21.1667 277.5,19.5C 290.833,19.5 304.167,19.5 317.5,19.5C 317.5,21.1667 317.5,22.8333 317.5,24.5 Z"/></g>
<g><path style="opacity:1" fill="#818181" d="M 277.5,24.5 C 282.5,24.5 287.5,24.5 292.5,24.5C 292.832,65.6701 292.499,106.67 291.5,147.5C 291.5,106.833 291.5,66.1667 291.5,25.5C 286.637,25.8195 281.97,25.4861 277.5,24.5 Z"/></g>
<g><path style="opacity:1" fill="#c0c0c0" d="M 319.5,27.5 C 319.833,27.5 320.167,27.5 320.5,27.5C 316.03,28.4861 311.363,28.8195 306.5,28.5C 306.5,67.1667 306.5,105.833 306.5,144.5C 306.167,144.5 305.833,144.5 305.5,144.5C 305.5,105.5 305.5,66.5 305.5,27.5C 310.167,27.5 314.833,27.5 319.5,27.5 Z"/></g>
<g><path style="opacity:1" fill="#707070" d="M 317.5,24.5 C 313.03,25.4861 308.363,25.8195 303.5,25.5C 303.5,66.1667 303.5,106.833 303.5,147.5C 302.501,106.67 302.168,65.6701 302.5,24.5C 307.5,24.5 312.5,24.5 317.5,24.5 Z"/></g>
<g><path style="opacity:1" fill="#070707" d="M 253.5,63.5 C 258.167,63.5 262.833,63.5 267.5,63.5C 267.333,96.835 267.5,130.168 268,163.5C 273.382,183.448 286.215,190.948 306.5,186C 316,183.167 322.167,177 325,167.5C 326.473,132.882 326.973,98.2155 326.5,63.5C 330.833,63.5 335.167,63.5 339.5,63.5C 339.667,96.835 339.5,130.168 339,163.5C 337.085,181.084 327.585,192.251 310.5,197C 301.546,198.474 292.546,198.807 283.5,198C 265.989,192.194 256.156,180.027 254,161.5C 253.5,128.835 253.333,96.1684 253.5,63.5 Z"/></g>
<g><path style="opacity:1" fill="#989898" d="M 42.5,68.5 C 56.6569,67.5041 70.9903,67.1707 85.5,67.5C 85.5,70.5 85.5,73.5 85.5,76.5C 80.5,76.5 75.5,76.5 70.5,76.5C 74.97,75.5139 79.6367,75.1805 84.5,75.5C 84.5,73.1667 84.5,70.8333 84.5,68.5C 70.5,68.5 56.5,68.5 42.5,68.5 Z"/></g>
<g><path style="opacity:1" fill="#636363" d="M 42.5,75.5 C 47.5,75.5 52.5,75.5 57.5,75.5C 57.8307,97.3398 57.4973,119.006 56.5,140.5C 56.5,119.167 56.5,97.8333 56.5,76.5C 51.6367,76.8195 46.97,76.4861 42.5,75.5 Z"/></g>
<g><path style="opacity:1" fill="#fafafa" d="M 207.5,152.5 C 188.5,153.833 169.5,153.833 150.5,152.5C 159.38,128.42 169.047,104.753 179.5,81.5C 189.614,104.84 198.948,128.507 207.5,152.5 Z"/></g>
<g><path style="opacity:1" fill="#656565" d="M 56.5,143.5 C 57.4767,146.287 57.81,149.287 57.5,152.5C 55.2646,152.795 53.2646,152.461 51.5,151.5C 53.1667,151.5 54.8333,151.5 56.5,151.5C 56.5,148.833 56.5,146.167 56.5,143.5 Z"/></g>
<g><path style="opacity:1" fill="#6f6f6f" d="M 288.5,27.5 C 289.499,66.6631 289.832,105.996 289.5,145.5C 284.833,145.5 280.167,145.5 275.5,145.5C 275.5,148.833 275.5,152.167 275.5,155.5C 274.518,152.038 274.185,148.371 274.5,144.5C 279.167,144.5 283.833,144.5 288.5,144.5C 288.5,105.5 288.5,66.5 288.5,27.5 Z"/></g>
<g><path style="opacity:1" fill="#626262" d="M 305.5,144.5 C 305.833,144.5 306.167,144.5 306.5,144.5C 311.167,144.5 315.833,144.5 320.5,144.5C 320.815,148.371 320.482,152.038 319.5,155.5C 319.5,152.167 319.5,148.833 319.5,145.5C 314.637,145.819 309.97,145.486 305.5,144.5 Z"/></g>
<g><path style="opacity:1" fill="#585858" d="M 150.5,152.5 C 169.5,153.833 188.5,153.833 207.5,152.5C 208.043,152.56 208.376,152.893 208.5,153.5C 188.833,154.833 169.167,154.833 149.5,153.5C 149.624,152.893 149.957,152.56 150.5,152.5 Z"/></g>
<g><path style="opacity:1" fill="#414141" d="M 238.5,153.5 C 239.043,153.56 239.376,153.893 239.5,154.5C 234.683,155.167 230.017,155.834 225.5,156.5C 224.957,156.44 224.624,156.107 224.5,155.5C 229.317,154.833 233.983,154.166 238.5,153.5 Z"/></g>
<g><path style="opacity:1" fill="#767676" d="M 121.5,154.5 C 123.607,155.468 125.941,155.802 128.5,155.5C 125.976,156.8 123.309,156.8 120.5,155.5C 120.624,154.893 120.957,154.56 121.5,154.5 Z"/></g>
<g><path style="opacity:1" fill="#d1d1d1" d="M 72.5,154.5 C 71.5214,166.42 71.1881,178.42 71.5,190.5C 76.0323,190.182 80.3656,190.515 84.5,191.5C 79.8333,191.5 75.1667,191.5 70.5,191.5C 69.8536,178.788 70.5203,166.455 72.5,154.5 Z"/></g>
<g><path style="opacity:1" fill="#4f4f4f" d="M 84.5,191.5 C 85.4731,193.948 85.8064,196.615 85.5,199.5C 70.9903,199.829 56.6569,199.496 42.5,198.5C 56.5,198.5 70.5,198.5 84.5,198.5C 84.5,196.167 84.5,193.833 84.5,191.5 Z"/></g>
</svg>
